<svg width="295" height="259" viewBox="0 0 295 259" fill="none" xmlns="http://www.w3.org/2000/svg">
<g clip-path="url(#clip0)">
<rect x="3" y="-1" width="290" height="250" rx="18" fill="#272823"/>
<circle cx="24.7359" cy="20.1021" r="5.12324" fill="#ED6A5E"/>
<circle cx="41.8134" cy="20.1021" r="5.12324" fill="#F5BF50"/>
<circle cx="58.8908" cy="20.1021" r="5.12324" fill="#62C554"/>
<path d="M68.4141 132.206C65.8197 134.472 63.2911 136.919 60.8493 139.553L68.4141 132.206ZM68.4141 132.206L68.5866 136.747L68.5878 136.778L68.5895 136.81L69.2568 148.722L69.4456 152.093L72.8211 152.026L86.4383 151.754L87.2003 165.352L87.3892 168.723L90.7643 168.656L104.384 168.385L105.147 181.985L105.336 185.355L108.71 185.289L122.331 185.021L123.095 198.62L123.285 201.99L126.659 201.923L138.21 201.694L138.242 201.694L138.274 201.692L142.819 201.52C140.799 204.206 138.603 206.843 136.224 209.41C127.902 218.389 119.435 224.51 111.138 228.269L111.136 228.269C102.852 232.027 94.6906 233.43 87.0974 232.988L87.0952 232.988C82.0269 232.697 77.1807 231.583 72.6755 229.823C66.6614 227.471 61.2445 223.968 56.6324 219.693C51.4443 214.885 47.1526 208.988 44.3201 202.255L44.3197 202.254C41.4923 195.539 40.1297 187.957 40.8198 179.891L40.82 179.889C41.2762 174.508 42.6439 168.885 45.0742 163.133L45.0744 163.133C48.3166 155.456 53.4505 147.536 60.8489 139.553L68.4141 132.206Z" fill="white" stroke="#4F4F4F" stroke-width="7"/>
<path d="M222.586 123.206C225.18 125.472 227.709 127.919 230.151 130.553L222.586 123.206ZM222.586 123.206L222.413 127.747L222.412 127.778L222.411 127.81L221.743 139.722L221.554 143.093L218.179 143.026L204.562 142.754L203.8 156.352L203.611 159.723L200.236 159.656L186.617 159.385L185.853 172.985L185.664 176.355L182.29 176.289L168.669 176.021L167.905 189.62L167.715 192.99L164.341 192.923L152.79 192.694L152.758 192.694L152.727 192.692L148.181 192.52C150.201 195.206 152.397 197.843 154.776 200.41C163.098 209.389 171.565 215.51 179.862 219.269L179.864 219.269C188.148 223.027 196.309 224.43 203.903 223.988L203.905 223.988C208.973 223.697 213.819 222.583 218.325 220.823C224.339 218.471 229.756 214.968 234.368 210.693C239.556 205.885 243.848 199.988 246.68 193.255L246.68 193.254C249.508 186.539 250.87 178.957 250.18 170.891L250.18 170.889C249.724 165.508 248.356 159.885 245.926 154.133L245.926 154.133C242.683 146.456 237.55 138.536 230.151 130.553L222.586 123.206Z" fill="white" stroke="#4F4F4F" stroke-width="7"/>
<path d="M95.3034 187.487L89.8165 182L79.6519 192.164L69.4875 182L64 187.487L74.1647 197.651L64 207.816L69.4875 213.303L79.6519 203.138L89.8167 213.303L95.3034 207.816L85.1386 197.651L95.3034 187.487Z" fill="#F44747"/>
<path d="M228.589 172.704C217.753 178.708 206.785 195.788 206.785 195.788L196.886 184.58L191 190.184L205.313 207.93L210.53 207.73C217.219 187.714 232 174.305 232 174.305L228.589 172.704Z" fill="#51BC03"/>
<path d="M93.1101 121.924L106.263 112.281C107.978 111.024 110.397 111.395 111.656 113.112C112.469 114.221 112.6 115.625 112.126 116.818L112.333 117.1L134.457 147.276C137.782 151.812 136.798 158.208 132.262 161.534C127.725 164.86 121.329 163.875 118.003 159.339L95.8792 129.163L95.6728 128.881C94.3933 128.973 93.0948 128.425 92.2817 127.316C91.0231 125.6 91.3954 123.181 93.1101 121.924ZM97.495 128.269L102.262 134.771L119.481 158.256C122.213 161.983 127.451 162.789 131.179 160.056C134.906 157.324 135.712 152.086 132.98 148.359L115.847 124.991L110.994 118.372L110.699 117.97C110.644 118.014 110.588 118.059 110.53 118.101L97.3773 127.744C97.3188 127.787 97.2609 127.826 97.2004 127.867L97.495 128.269V128.269ZM95.6771 127.04L96.2739 126.603L109.773 116.706L110.371 116.267C110.683 115.615 110.635 114.818 110.178 114.195C109.516 113.293 108.249 113.097 107.346 113.759L94.1937 123.402C93.2914 124.064 93.0959 125.331 93.7577 126.234C94.2146 126.857 94.9615 127.141 95.6771 127.04Z" fill="#F44747"/>
<path d="M120.557 134.796L131.368 149.541C133.444 152.373 132.83 156.368 129.997 158.444C127.164 160.521 123.169 159.906 121.092 157.074L110.207 142.227C115.41 141.292 115.899 136.053 120.557 134.796ZM124.992 145.631C124.574 145.064 123.775 144.942 123.207 145.36C122.64 145.777 122.518 146.575 122.935 147.142C123.353 147.712 124.151 147.834 124.719 147.416C125.287 146.999 125.409 146.201 124.992 145.631ZM128.502 153.783C128.935 153.466 129.028 152.858 128.71 152.425C128.392 151.992 127.783 151.898 127.35 152.217C126.918 152.535 126.825 153.143 127.143 153.575C127.461 154.008 128.069 154.102 128.502 153.783ZM121.589 153.31C121.928 153.771 122.577 153.871 123.038 153.532C123.5 153.194 123.599 152.545 123.261 152.083C122.922 151.621 122.272 151.522 121.81 151.861C121.349 152.2 121.25 152.848 121.589 153.31Z" fill="#F44747"/>
<path d="M204.586 92.9892L185.846 79.2501C183.403 77.4583 179.956 77.9882 178.163 80.4341C177.004 82.0143 176.817 84.0139 177.492 85.7145L177.198 86.1156L145.675 129.111C140.937 135.573 142.339 144.687 148.803 149.426C155.266 154.164 164.38 152.761 169.118 146.299L200.641 103.303L200.935 102.902C202.758 103.033 204.608 102.252 205.766 100.672C207.56 98.2263 207.029 94.7804 204.586 92.9892ZM198.338 102.029L191.546 111.294L167.013 144.755C163.12 150.066 155.657 151.215 150.346 147.321C145.035 143.427 143.887 135.965 147.78 130.654L172.191 97.3592L179.105 87.928L179.525 87.3554C179.603 87.4189 179.684 87.4821 179.767 87.5428L198.506 101.282C198.59 101.343 198.672 101.399 198.758 101.456L198.338 102.029V102.029ZM200.929 100.279L200.078 99.656L180.845 85.555L179.992 84.9297C179.548 84.0005 179.617 82.8652 180.268 81.9775C181.211 80.6913 183.016 80.4133 184.303 81.3562L203.042 95.0954C204.328 96.0379 204.606 97.8442 203.663 99.1303C203.012 100.018 201.948 100.423 200.929 100.279Z" fill="#51BC03"/>
<path d="M165.479 111.329L150.077 132.338C147.119 136.373 147.994 142.065 152.03 145.024C156.066 147.983 161.759 147.106 164.717 143.071L180.226 121.917C172.813 120.584 172.117 113.121 165.479 111.329ZM159.161 126.768C159.756 125.96 160.895 125.785 161.704 126.381C162.512 126.975 162.686 128.112 162.091 128.921C161.496 129.732 160.359 129.907 159.55 129.31C158.741 128.717 158.566 127.579 159.161 126.768ZM154.16 138.382C153.543 137.93 153.41 137.064 153.863 136.447C154.316 135.83 155.184 135.697 155.801 136.151C156.417 136.604 156.549 137.47 156.096 138.086C155.643 138.703 154.777 138.836 154.16 138.382ZM164.009 137.708C163.526 138.366 162.602 138.508 161.944 138.025C161.287 137.543 161.145 136.618 161.628 135.959C162.11 135.301 163.037 135.161 163.694 135.644C164.352 136.126 164.493 137.05 164.009 137.708Z" fill="#51BC03"/>
<path d="M21.562 42.522L23.322 42.324V48.88C23.6447 48.66 23.982 48.4693 24.334 48.308C24.6273 48.1613 24.9573 48.0293 25.324 47.912C25.6907 47.78 26.0573 47.714 26.424 47.714C27.0253 47.714 27.59 47.8313 28.118 48.066C28.6607 48.3007 29.13 48.6527 29.526 49.122C29.9367 49.5913 30.2593 50.1853 30.494 50.904C30.7287 51.6227 30.846 52.4733 30.846 53.456C30.846 54.5413 30.692 55.458 30.384 56.206C30.0907 56.9393 29.6873 57.5333 29.174 57.988C28.6753 58.4427 28.1033 58.7727 27.458 58.978C26.8127 59.1833 26.1527 59.286 25.478 59.286C24.8033 59.286 24.2167 59.2347 23.718 59.132C23.234 59.044 22.8307 58.9413 22.508 58.824C22.1267 58.6773 21.8113 58.516 21.562 58.34V42.522ZM23.322 57.372C23.5127 57.4453 23.718 57.5113 23.938 57.57C24.158 57.614 24.3927 57.658 24.642 57.702C24.906 57.7313 25.1847 57.746 25.478 57.746C26.1527 57.746 26.7173 57.6507 27.172 57.46C27.6267 57.2693 27.986 56.9907 28.25 56.624C28.514 56.2573 28.6973 55.8173 28.8 55.304C28.9173 54.776 28.976 54.1893 28.976 53.544C28.976 53.0307 28.9173 52.5173 28.8 52.004C28.6973 51.4907 28.5287 51.036 28.294 50.64C28.0593 50.2293 27.766 49.8993 27.414 49.65C27.0767 49.386 26.6807 49.254 26.226 49.254C25.918 49.254 25.5953 49.32 25.258 49.452C24.9207 49.5693 24.6053 49.7087 24.312 49.87C23.9747 50.046 23.6447 50.244 23.322 50.464V57.372ZM34.5219 47.912L36.2819 47.714V59H34.5219V47.912ZM34.2359 44.766C34.2359 44.4287 34.3459 44.15 34.5659 43.93C34.8006 43.6953 35.0866 43.578 35.4239 43.578C35.7759 43.578 36.0692 43.6953 36.3039 43.93C36.5532 44.15 36.6779 44.4287 36.6779 44.766C36.6779 45.1033 36.5532 45.3893 36.3039 45.624C36.0692 45.844 35.7759 45.954 35.4239 45.954C35.0866 45.954 34.8006 45.844 34.5659 45.624C34.3459 45.3893 34.2359 45.1033 34.2359 44.766ZM40.5638 49.716C40.5638 49.3787 40.5271 48.8507 40.4538 48.132L42.0818 47.912L42.2578 49.518H42.2798C42.5438 49.1807 42.8005 48.8873 43.0498 48.638C43.2991 48.3887 43.5558 48.176 43.8198 48C44.0985 47.8093 44.3625 47.714 44.6118 47.714C44.9491 47.6993 45.4185 47.736 46.0198 47.824L45.6238 49.518C45.1398 49.43 44.8025 49.3933 44.6118 49.408C44.3625 49.408 44.0985 49.5253 43.8198 49.76C43.5411 49.9947 43.2991 50.244 43.0938 50.508C42.8298 50.8307 42.5731 51.1973 42.3238 51.608V59H40.5638V49.716ZM51.6279 44.634V47.934H54.8179V49.364H51.6279V55.238C51.6279 55.722 51.6353 56.1253 51.6499 56.448C51.6793 56.7707 51.7306 57.0273 51.8039 57.218C51.8773 57.4087 51.9799 57.548 52.1119 57.636C52.2439 57.7093 52.4126 57.746 52.6179 57.746C53.1753 57.7313 53.8206 57.526 54.5539 57.13L55.0819 58.472C54.5979 58.7947 54.1433 59.0073 53.7179 59.11C53.3073 59.2273 52.8966 59.286 52.4859 59.286C51.5179 59.286 50.8359 59.0147 50.4399 58.472C50.0586 57.9147 49.8679 56.998 49.8679 55.722V49.364H47.8439V47.934H49.8679V44.854L51.6279 44.634ZM58.1676 42.522L59.9276 42.324V49.32C60.3676 49.0267 60.8003 48.77 61.2256 48.55C61.6656 48.33 62.1129 48.1393 62.5676 47.978C63.0223 47.802 63.4623 47.714 63.8876 47.714C64.4889 47.714 64.9876 47.7873 65.3836 47.934C65.7943 48.066 66.1243 48.2933 66.3736 48.616C66.6229 48.9387 66.7989 49.364 66.9016 49.892C67.0189 50.42 67.0776 51.08 67.0776 51.872V59H65.3176V52.07C65.3176 51.63 65.3103 51.2413 65.2956 50.904C65.2809 50.552 65.2149 50.2587 65.0976 50.024C64.9949 49.7747 64.8263 49.584 64.5916 49.452C64.3716 49.32 64.0563 49.254 63.6456 49.254C63.2643 49.254 62.8536 49.342 62.4136 49.518C61.9736 49.6793 61.5556 49.87 61.1596 50.09C60.7636 50.31 60.3529 50.5667 59.9276 50.86V59H58.1676V42.522ZM71.2994 50.486C71.2994 49.958 71.2627 49.1733 71.1894 48.132L72.8174 47.912L73.0154 49.1C73.3087 48.8507 73.6094 48.6307 73.9174 48.44C74.24 48.2347 74.5847 48.066 74.9514 47.934C75.3327 47.7873 75.736 47.714 76.1614 47.714C76.7627 47.714 77.3274 47.8167 77.8554 48.022C78.398 48.2273 78.8674 48.5573 79.2634 49.012C79.674 49.4667 79.9967 50.0607 80.2314 50.794C80.466 51.5127 80.5834 52.4 80.5834 53.456C80.5834 54.5267 80.422 55.436 80.0994 56.184C79.7914 56.9173 79.3807 57.5187 78.8674 57.988C78.3687 58.4427 77.7967 58.7727 77.1514 58.978C76.5207 59.1833 75.8754 59.286 75.2154 59.286C74.5114 59.2713 73.7927 59.1833 73.0594 59.022V63.796L71.2994 64.016V50.486ZM75.2154 57.746C75.8314 57.746 76.3594 57.636 76.7994 57.416C77.2394 57.196 77.5987 56.8953 77.8774 56.514C78.1707 56.118 78.3834 55.6707 78.5154 55.172C78.6474 54.6587 78.7134 54.116 78.7134 53.544C78.7134 53.0307 78.662 52.5173 78.5594 52.004C78.4714 51.4907 78.3174 51.036 78.0974 50.64C77.892 50.2293 77.6134 49.8993 77.2614 49.65C76.9094 49.386 76.4767 49.254 75.9634 49.254C75.582 49.254 75.2227 49.3273 74.8854 49.474C74.548 49.606 74.2254 49.7747 73.9174 49.98C73.624 50.1707 73.338 50.3907 73.0594 50.64V57.394C73.2207 57.4527 73.3967 57.5113 73.5874 57.57C73.7927 57.614 74.0274 57.658 74.2914 57.702C74.57 57.7313 74.878 57.746 75.2154 57.746ZM92.4422 58.736C92.1049 58.8387 91.7529 58.9267 91.3862 59C91.0342 59.0733 90.6382 59.1393 90.1982 59.198C89.7729 59.2567 89.3256 59.286 88.8562 59.286C88.1229 59.286 87.4409 59.1833 86.8102 58.978C86.1796 58.7727 85.6296 58.4427 85.1602 57.988C84.6909 57.5333 84.3169 56.9467 84.0382 56.228C83.7742 55.4947 83.6422 54.6 83.6422 53.544C83.6422 52.5907 83.7742 51.7547 84.0382 51.036C84.3022 50.3027 84.6616 49.694 85.1162 49.21C85.5856 48.7113 86.1282 48.3373 86.7442 48.088C87.3749 47.8387 88.0569 47.714 88.7902 47.714C89.5089 47.714 90.1322 47.8533 90.6602 48.132C91.1882 48.4107 91.6209 48.792 91.9582 49.276C92.3102 49.7453 92.5669 50.3027 92.7282 50.948C92.9042 51.5787 92.9922 52.246 92.9922 52.95L92.6622 53.918H85.5562C85.5562 54.3727 85.6149 54.8273 85.7322 55.282C85.8496 55.7367 86.0476 56.1473 86.3262 56.514C86.6196 56.8807 86.9936 57.1813 87.4482 57.416C87.9176 57.636 88.4969 57.746 89.1862 57.746C89.6262 57.746 90.0296 57.724 90.3962 57.68C90.7629 57.6213 91.0782 57.5627 91.3422 57.504C91.6209 57.4307 91.8776 57.35 92.1122 57.262L92.4422 58.736ZM91.1662 52.51C91.1662 52.4073 91.1442 52.18 91.1002 51.828C91.0562 51.476 90.9536 51.1093 90.7922 50.728C90.6309 50.3467 90.3816 50.0093 90.0442 49.716C89.7069 49.408 89.2596 49.254 88.7022 49.254C88.0862 49.254 87.5802 49.386 87.1842 49.65C86.7882 49.8993 86.4729 50.2 86.2382 50.552C86.0036 50.904 85.8422 51.2633 85.7542 51.63C85.6662 51.9967 85.6222 52.29 85.6222 52.51H91.1662ZM103.351 49.54C103.102 49.4813 102.757 49.4227 102.317 49.364C101.877 49.2907 101.43 49.254 100.975 49.254C100.315 49.254 99.7725 49.386 99.3471 49.65C98.9365 49.914 98.6138 50.2587 98.3791 50.684C98.1445 51.0947 97.9831 51.5567 97.8951 52.07C97.8071 52.5687 97.7631 53.06 97.7631 53.544C97.7631 54.292 97.8585 54.9373 98.0491 55.48C98.2398 56.008 98.4891 56.4407 98.7971 56.778C99.1198 57.1153 99.4865 57.3647 99.8971 57.526C100.308 57.6727 100.74 57.746 101.195 57.746C101.503 57.746 101.796 57.7313 102.075 57.702C102.368 57.658 102.632 57.614 102.867 57.57C103.116 57.5113 103.351 57.4453 103.571 57.372L103.923 58.846C103.615 58.934 103.329 59.0073 103.065 59.066C102.801 59.1247 102.486 59.176 102.119 59.22C101.767 59.264 101.386 59.286 100.975 59.286C100.168 59.286 99.4498 59.1833 98.8191 58.978C98.1885 58.7727 97.6531 58.4427 97.2131 57.988C96.7878 57.5333 96.4578 56.9393 96.2231 56.206C96.0031 55.4727 95.8931 54.578 95.8931 53.522C95.8931 52.4953 96.0325 51.6153 96.3111 50.882C96.6045 50.134 96.9858 49.5327 97.4551 49.078C97.9245 48.6087 98.4598 48.264 99.0611 48.044C99.6771 47.824 100.315 47.714 100.975 47.714C101.327 47.714 101.664 47.736 101.987 47.78C102.324 47.8093 102.618 47.846 102.867 47.89C103.16 47.9487 103.439 48.0073 103.703 48.066L103.351 49.54Z" fill="white"/>
<rect x="114" y="42" width="2" height="22" fill="#A7A7A7"/>
</g>
<defs>
<clipPath id="clip0">
<rect width="295" height="259" fill="white"/>
</clipPath>
</defs>
</svg>
