<svg width="300" height="280" viewBox="0 0 300 280" fill="none" xmlns="http://www.w3.org/2000/svg">
<path d="M49.4517 31.7797C49.9147 31.204 50.1027 30.4276 49.8984 29.6651C49.5567 28.3899 48.2474 27.6339 46.9722 27.9756L16.7334 36.0781C15.4588 36.4196 14.7024 37.7292 15.0439 39.0041L49.4517 31.7797ZM49.4517 31.7797L48.4872 32.0382L17.4518 40.3541L16.4913 40.6114C15.8004 40.344 15.248 39.7651 15.0439 39.0043L49.4517 31.7797ZM51.5596 35.7129L51.3449 34.9118L51.9092 34.304C53.2512 32.8586 53.8388 30.7837 53.2952 28.7549C52.4521 25.6082 49.2052 23.7349 46.0618 24.5772L15.823 32.6797C12.6815 33.5214 10.807 36.7664 11.6503 39.9136C12.1941 41.9432 13.7399 43.4466 15.6221 44.0275L16.4141 44.2719L16.6286 45.0726L16.8021 45.7198L35.3921 115.099C37.9718 124.727 47.9087 130.464 57.5381 127.883C67.1674 125.303 72.9028 115.367 70.323 105.739L51.733 36.3601L51.5596 35.7129ZM49.1981 34.9633L49.391 34.9018L49.2636 34.9359L18.2283 43.2518L18.0961 43.2872L18.2972 43.2431C18.4247 43.2152 18.53 43.1907 18.6321 43.1633L48.8709 35.0608C48.9726 35.0336 49.0794 35.0012 49.1981 34.9633ZM51.0041 34.4696L50.7127 34.5476L51.103 36.0041L51.3506 36.9281L55.4284 52.1467L69.8242 105.873C72.3347 115.242 66.7744 124.874 57.4045 127.385C48.0337 129.896 38.4014 124.334 35.8909 114.965L21.423 60.9703L17.4172 46.0205L17.1697 45.0965L16.7794 43.6401L16.492 43.7171L16.1249 43.6308C14.2609 43.1929 12.6797 41.7708 12.1462 39.781L12.1461 39.7808C11.3756 36.905 13.0823 33.9506 15.9569 33.1803L46.1958 25.0778C49.0714 24.3073 52.0257 26.013 52.7962 28.8886C53.3288 30.8764 52.676 32.8984 51.2789 34.2113L51.0041 34.4696ZM38.7887 114.189C40.8703 121.957 48.8575 126.569 56.628 124.487C64.3974 122.405 69.0081 114.418 66.9265 106.649L52.5306 52.9231L48.5963 38.2403L20.4586 45.7797L24.3208 60.1939L38.7887 114.189Z" fill="white" stroke="#F44747" stroke-width="3"/>
<path d="M55.5858 73.3533L64.6694 107.254C66.4139 113.764 62.5362 120.485 56.0231 122.23C49.5109 123.975 42.79 120.094 41.0455 113.584L31.8989 79.4482C41.8583 81.3943 46.3764 72.3627 55.5858 73.3533ZM55.9822 95.8243C55.6301 94.519 54.2844 93.7435 52.9778 94.0968C51.6724 94.4483 50.8994 95.7916 51.2516 97.0968C51.6024 98.4058 52.9446 99.1806 54.2518 98.8269C55.5583 98.4768 56.3329 97.1331 55.9822 95.8243ZM56.5916 112.85C57.5868 112.583 58.1759 111.561 57.9088 110.564C57.6414 109.569 56.6164 108.978 55.6202 109.246C54.6254 109.515 54.0369 110.538 54.3049 111.533C54.5716 112.528 55.5952 113.119 56.5916 112.85ZM44.5536 107.195C44.8381 108.256 45.9295 108.886 46.9907 108.6C48.0523 108.316 48.6818 107.225 48.3969 106.162C48.1124 105.1 47.0179 104.47 45.9567 104.757C44.895 105.041 44.2671 106.132 44.5536 107.195Z" fill="#F44747"/>
<path d="M94.0885 42.5368C94.6069 42.0105 94.8719 41.2568 94.7451 40.4776C94.5331 39.1746 93.3062 38.2911 92.0032 38.5031L61.1039 43.5308C59.8016 43.7427 58.9175 44.9697 59.1294 46.2725L94.0885 42.5368ZM94.0885 42.5368L93.1029 42.6972L61.3898 47.8572L60.4083 48.0169C59.7477 47.6816 59.2561 47.0502 59.1294 46.2727L94.0885 42.5368ZM95.7911 46.6616L95.6579 45.843L96.2803 45.2949C97.7605 43.9914 98.5534 41.9859 98.2161 39.9129C97.6929 36.6974 94.6504 34.5079 91.4383 35.0305L60.5391 40.0581C57.3291 40.5804 55.1384 43.6209 55.6617 46.8369C55.9992 48.9108 57.3863 50.5617 59.2007 51.3286L59.9642 51.6512L60.0973 52.4693L60.2049 53.1307L71.7402 124.025C73.3409 133.863 82.652 140.568 92.4917 138.967C102.331 137.366 109.035 128.055 107.434 118.217L95.8987 47.3229L95.7911 46.6616ZM93.5167 45.6789L93.7148 45.637L93.5847 45.6582L61.8716 50.8183L61.7365 50.8403L61.941 50.8165C62.0706 50.8015 62.1779 50.7877 62.2822 50.7707L93.1814 45.7431C93.2853 45.7262 93.3948 45.7047 93.5167 45.6789ZM95.3632 45.3688L95.0654 45.4173L95.3076 46.9056L95.4612 47.8497L97.9915 63.4007L106.924 118.3C108.482 127.874 101.983 136.899 92.4088 138.457C82.8334 140.015 73.8076 133.516 72.2499 123.942L63.2725 68.7679L60.7868 53.4916L60.6332 52.5475L60.391 51.0592L60.0974 51.107L59.7408 50.9843C57.9301 50.3616 56.4995 48.788 56.1684 46.7547L56.1684 46.7545C55.6902 43.8159 57.6848 41.0476 60.6221 40.5697L91.5214 35.5421C94.4597 35.064 97.2281 37.0575 97.7062 39.9958C98.0367 42.0271 97.1843 43.9733 95.6625 45.1395L95.3632 45.3688ZM75.2109 123.46C76.5026 131.398 83.9867 136.788 91.927 135.496C99.8661 134.204 105.255 126.72 103.963 118.782L95.0304 63.8824L92.5892 48.8789L63.837 53.5572L66.2335 68.2861L75.2109 123.46Z" fill="white" stroke="#51BC03" stroke-width="3"/>
<path d="M96.0204 84.516L101.657 119.157C102.739 125.81 98.207 132.107 91.5517 133.19C84.8972 134.272 78.5996 129.737 77.5171 123.085L71.8416 88.2037C81.5555 91.1392 86.9569 82.6064 96.0204 84.516ZM94.1603 106.913C93.9409 105.579 92.6798 104.673 91.3444 104.893C90.0103 105.112 89.1064 106.371 89.3259 107.705C89.5436 109.042 90.8013 109.948 92.1374 109.727C93.4724 109.51 94.3779 108.251 94.1603 106.913ZM93.0583 123.914C94.0753 123.749 94.764 122.791 94.5983 121.772C94.432 120.756 93.4715 120.064 92.4534 120.232C91.4368 120.399 90.7485 121.358 90.9154 122.375C91.0808 123.392 92.04 124.082 93.0583 123.914ZM81.6486 117.08C81.8251 118.164 82.8477 118.901 83.9323 118.723C85.0171 118.546 85.7529 117.524 85.5761 116.437C85.3996 115.352 84.3737 114.617 83.2892 114.795C82.2043 114.971 81.4702 115.993 81.6486 117.08Z" fill="#51BC03"/>
<path d="M172.998 25.2202C173.672 24.9177 174.192 24.3114 174.357 23.5393C174.632 22.2481 173.809 20.9798 172.518 20.7049L141.899 14.1845C140.608 13.9097 139.339 14.7327 139.064 16.0235L172.998 25.2202ZM172.998 25.2202L172.022 25.0122L140.596 18.3201L139.623 18.113C139.129 17.5609 138.9 16.7942 139.064 16.0237L172.998 25.2202ZM173.089 29.6816L173.262 28.8705L174.041 28.5854C175.893 27.9075 177.359 26.326 177.796 24.2718C178.475 21.0855 176.434 17.9416 173.251 17.2638L142.632 10.7435C139.451 10.0661 136.307 12.1052 135.628 15.292C135.19 17.347 135.884 19.3887 137.297 20.7613L137.892 21.3389L137.719 22.1496L137.579 22.8049L122.619 93.0561C120.543 102.805 126.789 112.43 136.539 114.507C146.29 116.583 155.913 110.337 157.989 100.588L172.949 30.337L173.089 29.6816ZM171.326 27.9411L171.526 27.9739L171.397 27.9464L139.971 21.2543L139.837 21.2258L140.036 21.2779C140.163 21.3109 140.268 21.3369 140.371 21.3589L170.99 27.8793C171.093 27.9012 171.203 27.9209 171.326 27.9411ZM173.159 28.3217L172.864 28.2589L172.55 29.7337L172.351 30.6692L169.069 46.0792L157.484 100.481C155.464 109.967 146.135 116.022 136.647 114.002C127.158 111.981 121.104 102.651 123.124 93.1637L134.767 38.4901L137.991 23.3523L138.19 22.4167L138.504 20.9419L138.213 20.8799L137.925 20.6363C136.464 19.3993 135.701 17.4141 136.13 15.3991L136.13 15.3989C136.75 12.487 139.613 10.6305 142.523 11.2503L173.142 17.7707C176.054 18.3907 177.911 21.2524 177.291 24.1642C176.862 26.177 175.362 27.6816 173.521 28.2165L173.159 28.3217ZM126.059 93.7885C124.383 101.655 129.404 109.392 137.272 111.067C145.139 112.743 152.875 107.722 154.55 99.8558L166.135 45.4543L169.301 30.5868L140.809 24.5196L137.701 39.1149L126.059 93.7885Z" fill="white" stroke="#51BC03" stroke-width="3"/>
<path d="M159.575 65.0422L152.265 99.3688C150.861 105.961 144.353 110.186 137.758 108.782C131.164 107.378 126.94 100.867 128.344 94.2749L135.704 59.7103C143.692 65.9688 151.821 59.9757 159.575 65.0422ZM149.719 85.2403C149.998 83.9176 149.152 82.6153 147.827 82.3364C146.504 82.0565 145.205 82.9019 144.926 84.2247C144.644 85.5502 145.488 86.8502 146.813 87.129C148.136 87.4107 149.436 86.5656 149.719 85.2403ZM142.526 100.684C143.534 100.899 144.523 100.256 144.738 99.2467C144.952 98.2388 144.308 97.2461 143.298 97.0328C142.29 96.8198 141.301 97.4644 141.087 98.4724C140.873 99.4801 141.517 100.471 142.526 100.684ZM134.372 90.1771C134.143 91.252 134.829 92.3094 135.904 92.5367C136.979 92.7656 138.036 92.0793 138.265 91.0029C138.494 89.9277 137.805 88.8699 136.729 88.6426C135.654 88.4137 134.599 89.1001 134.372 90.1771Z" fill="#51BC03"/>
<path d="M122.452 27.7797C122.915 27.204 123.103 26.4276 122.898 25.6651C122.557 24.3899 121.247 23.6339 119.972 23.9756L89.7334 32.0781C88.4588 32.4196 87.7024 33.7292 88.0439 35.0041L122.452 27.7797ZM122.452 27.7797L121.487 28.0382L90.4518 36.3541L89.4913 36.6114C88.8004 36.344 88.248 35.7651 88.0439 35.0043L122.452 27.7797ZM124.56 31.7129L124.345 30.9118L124.909 30.304C126.251 28.8586 126.839 26.7837 126.295 24.7549C125.452 21.6082 122.205 19.7349 119.062 20.5772L88.823 28.6797C85.6815 29.5214 83.807 32.7664 84.6503 35.9136C85.1941 37.9432 86.7399 39.4466 88.6221 40.0275L89.4141 40.2719L89.6286 41.0726L89.8021 41.7198L108.392 111.099C110.972 120.727 120.909 126.464 130.538 123.883C140.167 121.303 145.903 111.367 143.323 101.739L124.733 32.3601L124.56 31.7129ZM122.198 30.9633L122.391 30.9018L122.264 30.9359L91.2283 39.2518L91.0961 39.2872L91.2972 39.2431C91.4247 39.2152 91.53 39.1907 91.6321 39.1633L121.871 31.0608C121.973 31.0336 122.079 31.0012 122.198 30.9633ZM124.004 30.4696L123.713 30.5476L124.103 32.0041L124.351 32.9281L128.428 48.1467L142.824 101.873C145.335 111.242 139.774 120.874 130.404 123.385C121.034 125.896 111.401 120.334 108.891 110.965L94.423 56.9703L90.4172 42.0205L90.1697 41.0965L89.7794 39.6401L89.492 39.7171L89.1249 39.6308C87.2609 39.1929 85.6797 37.7708 85.1462 35.781L85.1461 35.7808C84.3756 32.905 86.0823 29.9506 88.9569 29.1803L119.196 21.0778C122.071 20.3073 125.026 22.013 125.796 24.8886C126.329 26.8764 125.676 28.8984 124.279 30.2113L124.004 30.4696ZM111.789 110.189C113.87 117.957 121.857 122.569 129.628 120.487C137.397 118.405 142.008 110.418 139.926 102.649L125.531 48.9231L121.596 34.2403L93.4586 41.7797L97.3208 56.1939L111.789 110.189Z" fill="white" stroke="#F44747" stroke-width="3"/>
<path d="M128.586 69.3533L137.669 103.254C139.414 109.764 135.536 116.485 129.023 118.23C122.511 119.975 115.79 116.094 114.045 109.584L104.899 75.4482C114.858 77.3943 119.376 68.3627 128.586 69.3533ZM128.982 91.8243C128.63 90.519 127.284 89.7435 125.978 90.0968C124.672 90.4483 123.899 91.7916 124.252 93.0968C124.602 94.4058 125.945 95.1806 127.252 94.8269C128.558 94.4768 129.333 93.1331 128.982 91.8243ZM129.592 108.85C130.587 108.583 131.176 107.561 130.909 106.564C130.641 105.569 129.616 104.978 128.62 105.246C127.625 105.515 127.037 106.538 127.305 107.533C127.572 108.528 128.595 109.119 129.592 108.85ZM117.554 103.195C117.838 104.256 118.929 104.886 119.991 104.6C121.052 104.316 121.682 103.225 121.397 102.162C121.112 101.1 120.018 100.47 118.957 100.757C117.895 101.041 117.267 102.132 117.554 103.195Z" fill="#F44747"/>
<path d="M213.726 41.6185C214.167 41.0261 214.326 40.2432 214.094 39.4888C213.705 38.2272 212.369 37.5202 211.107 37.909L181.189 47.1265C179.928 47.515 179.221 48.8517 179.609 50.1131L213.726 41.6185ZM213.726 41.6185L212.772 41.9125L182.066 51.3729L181.115 51.6657C180.415 51.424 179.841 50.866 179.609 50.1133L213.726 41.6185ZM215.978 45.4709L215.734 44.6783L216.275 44.0501C217.563 42.5559 218.073 40.4606 217.455 38.4534C216.495 35.3401 213.181 33.5884 210.071 34.5466L180.154 43.7641C177.045 44.7217 175.292 48.0339 176.252 51.1477C176.87 53.1557 178.471 54.6009 180.373 55.1116L181.174 55.3265L181.418 56.1187L181.615 56.759L202.764 125.401C205.698 134.927 215.841 140.292 225.368 137.357C234.895 134.421 240.258 124.279 237.324 114.754L216.175 46.1112L215.978 45.4709ZM213.59 44.8094L213.781 44.7407L213.655 44.7796L182.949 54.2399L182.818 54.2802L183.018 54.2286C183.144 54.196 183.248 54.1676 183.349 54.1365L213.267 44.9189C213.368 44.8879 213.473 44.8516 213.59 44.8094ZM215.377 44.249L215.089 44.3378L215.532 45.7789L215.814 46.693L220.453 61.75L236.83 114.906C239.686 124.175 234.487 134.007 225.216 136.863C215.945 139.72 206.113 134.519 203.257 125.249L186.798 71.8278L182.241 57.0367L181.959 56.1226L181.515 54.6815L181.231 54.7691L180.861 54.6966C178.982 54.328 177.349 52.9655 176.742 50.9968L176.742 50.9966C175.866 48.1513 177.462 45.1357 180.306 44.2595L210.224 35.0419C213.069 34.1654 216.084 35.7604 216.961 38.6055C217.567 40.5722 216.989 42.617 215.642 43.9808L215.377 44.249ZM206.124 124.366C208.492 132.052 216.645 136.365 224.333 133.996C232.02 131.628 236.331 123.475 233.963 115.789L217.586 62.6334L213.11 48.1063L185.271 56.6834L189.665 70.9445L206.124 124.366Z" fill="white" stroke="#F44747" stroke-width="3"/>
<path d="M221.396 82.9362L231.73 116.477C233.715 122.918 230.089 129.777 223.645 131.763C217.202 133.748 210.342 130.119 208.357 123.678L197.952 89.9048C207.976 91.4805 212.157 82.2876 221.396 82.9362ZM222.625 105.377C222.225 104.086 220.852 103.361 219.559 103.762C218.267 104.162 217.545 105.533 217.945 106.824C218.344 108.119 219.714 108.844 221.007 108.442C222.3 108.044 223.024 106.672 222.625 105.377ZM223.865 122.369C224.85 122.065 225.401 121.022 225.097 120.036C224.793 119.051 223.746 118.498 222.761 118.803C221.777 119.108 221.227 120.153 221.531 121.137C221.835 122.122 222.879 122.674 223.865 122.369ZM211.626 117.163C211.949 118.213 213.064 118.803 214.113 118.478C215.164 118.154 215.752 117.04 215.428 115.988C215.105 114.938 213.987 114.35 212.938 114.675C211.887 114.998 211.3 116.112 211.626 117.163Z" fill="#F44747"/>
<path d="M280.697 44.5839C281.415 44.4097 282.037 43.9087 282.34 43.1796C282.846 41.9604 282.269 40.5631 281.05 40.0568L252.138 28.0515C250.919 27.5455 249.521 28.1227 249.015 29.3416L280.697 44.5839ZM280.697 44.5839L279.775 44.201L250.101 31.8794L249.183 31.498C248.798 30.865 248.713 30.0693 249.015 29.3418L280.697 44.5839ZM279.971 48.9868L280.289 48.2209L281.107 48.0829C283.052 47.7549 284.783 46.4679 285.588 44.5282C286.837 41.5196 285.405 38.0556 282.399 36.8076L253.487 24.8023C250.484 23.555 247.02 24.9853 245.77 27.9945C244.964 29.935 245.274 32.069 246.412 33.6767L246.891 34.3531L246.573 35.1186L246.316 35.7375L218.771 102.072C214.949 111.278 219.331 121.882 228.538 125.705C237.744 129.528 248.347 125.146 252.17 115.941L279.714 49.6057L279.971 48.9868ZM278.556 46.9534L278.746 47.0221L278.625 46.9716L248.951 34.65L248.825 34.5976L249.011 34.6851C249.129 34.7407 249.227 34.7854 249.325 34.8259L278.237 46.8313C278.334 46.8717 278.439 46.9111 278.556 46.9534ZM280.289 47.6626L280.01 47.5469L279.432 48.9395L279.065 49.8229L273.023 64.3738L251.693 115.743C247.973 124.701 237.694 128.948 228.736 125.228C219.776 121.508 215.529 111.229 219.248 102.27L240.685 50.6447L246.621 36.3508L246.987 35.4674L247.566 34.0748L247.291 33.9607L247.052 33.6686C245.841 32.1853 245.454 30.0942 246.244 28.1915L246.244 28.1913C247.386 25.4417 250.54 24.1396 253.288 25.2808L282.2 37.2862C284.95 38.4278 286.252 41.5807 285.111 44.3301C284.322 46.2307 282.572 47.4359 280.664 47.6253L280.289 47.6626ZM222.019 103.421C218.935 110.849 222.457 119.373 229.886 122.458C237.315 125.542 245.838 122.02 248.922 114.592L270.252 63.2233L276.082 49.1846L249.178 38.0135L243.456 51.7952L222.019 103.421Z" fill="white" stroke="#F44747" stroke-width="3"/>
<path d="M260.223 81.2828L246.764 113.696C244.179 119.921 237.009 122.885 230.782 120.3C224.556 117.714 221.592 110.542 224.177 104.317L237.729 71.679C244.439 79.2917 253.526 74.8847 260.223 81.2828ZM246.843 99.3399C247.359 98.0905 246.765 96.6554 245.513 96.1392C244.264 95.6223 242.833 96.2162 242.317 97.4657C241.797 98.7173 242.389 100.15 243.641 100.666C244.89 101.185 246.323 100.591 246.843 99.3399ZM236.949 113.21C237.901 113.605 238.991 113.153 239.387 112.2C239.781 111.249 239.329 110.155 238.375 109.761C237.423 109.367 236.333 109.82 235.939 110.772C235.544 111.724 235.996 112.815 236.949 113.21ZM230.852 101.389C230.431 102.404 230.912 103.569 231.927 103.989C232.943 104.411 234.107 103.929 234.529 102.913C234.95 101.897 234.466 100.731 233.45 100.311C232.435 99.89 231.273 100.372 230.852 101.389Z" fill="#F44747"/>
<path d="M203.21 30.9692C203.852 30.6046 204.313 29.952 204.404 29.1679C204.556 27.8565 203.618 26.6713 202.306 26.5191L171.209 22.9097C169.899 22.7576 168.713 23.6963 168.561 25.0073L203.21 30.9692ZM203.21 30.9692L202.218 30.854L170.302 27.1495L169.314 27.0349C168.77 26.5317 168.47 25.79 168.561 25.0075L203.21 30.9692ZM203.72 35.4022L203.816 34.5784L204.564 34.2214C206.344 33.3721 207.655 31.6597 207.897 29.5733C208.273 26.3374 205.945 23.3995 202.712 23.0243L171.615 19.4149C168.385 19.04 165.446 21.3659 165.071 24.6025C164.829 26.6896 165.712 28.6568 167.247 29.8904L167.894 30.4094L167.798 31.2328L167.721 31.8984L159.439 103.246C158.29 113.147 165.414 122.142 175.317 123.291C185.219 124.44 194.212 117.316 195.361 107.415L203.643 36.0678L203.72 35.4022ZM201.801 33.8354L202.003 33.8492L201.872 33.834L169.956 30.1295L169.82 30.1138L170.023 30.1469C170.152 30.1678 170.259 30.1839 170.364 30.196L201.461 33.8054C201.565 33.8176 201.677 33.8268 201.801 33.8354ZM203.662 34.0418L203.362 34.007L203.188 35.5048L203.078 36.455L201.261 52.1053L194.848 107.356C193.73 116.991 185.012 123.896 175.376 122.778C165.74 121.659 158.834 112.94 159.952 103.305L166.397 47.7786L168.182 32.4046L168.292 31.4544L168.466 29.9566L168.17 29.9223L167.861 29.7069C166.289 28.6129 165.343 26.7083 165.581 24.6619L165.581 24.6617C165.924 21.7043 168.599 19.5866 171.555 19.9297L202.652 23.5391C205.609 23.8824 207.727 26.5566 207.384 29.5138C207.147 31.558 205.795 33.1972 204.012 33.903L203.662 34.0418ZM162.932 103.651C162.005 111.64 167.731 118.87 175.722 119.798C183.712 120.725 190.941 114.999 191.868 107.01L198.281 51.7595L200.034 36.66L171.098 33.3014L169.377 48.1245L162.932 103.651Z" fill="white" stroke="#51BC03" stroke-width="3"/>
<path d="M193.594 71.8779L189.547 106.74C188.77 113.436 182.689 118.254 175.992 117.477C169.294 116.699 164.476 110.616 165.253 103.92L169.328 68.8164C177.869 74.2952 185.398 67.5637 193.594 71.8779ZM185.683 92.914C185.836 91.5708 184.871 90.354 183.526 90.201C182.183 90.0468 180.97 91.0107 180.816 92.3539C180.66 93.7001 181.622 94.9149 182.968 95.0678C184.311 95.2237 185.527 94.26 185.683 92.914ZM179.976 108.966C180.999 109.085 181.924 108.352 182.043 107.327C182.161 106.303 181.426 105.376 180.401 105.258C179.377 105.141 178.453 105.876 178.335 106.9C178.217 107.923 178.951 108.849 179.976 108.966ZM170.869 99.2733C170.742 100.365 171.524 101.353 172.616 101.478C173.708 101.605 174.695 100.822 174.822 99.7291C174.949 98.6371 174.163 97.6489 173.071 97.5238C171.98 97.3971 170.994 98.1797 170.869 99.2733Z" fill="#51BC03"/>
<path d="M272.002 85.2996L257.93 99.3497L257.907 99.372L257.885 99.3938L238.015 118.531L235.587 120.87L233.159 118.531L207.281 93.6094L181.404 118.531L178.976 120.87L176.548 118.532L150.665 93.6089L124.783 118.532L122.356 120.869L119.928 118.532L94.0391 93.6135L68.1559 118.532L65.7284 120.869L63.3009 118.532L44.0578 100.004L44.0349 99.9818L44.0125 99.9593L29.9108 85.8799C29.5507 88.3621 29.2289 90.8657 28.9469 93.3896C27.9993 101.871 27.5 110.584 27.4998 119.496C27.4998 148.288 32.3274 172.576 40.7694 192.624L40.7699 192.625C49.1983 212.663 61.2829 228.471 75.4592 240.136L75.4609 240.138C84.9122 247.925 95.3132 253.89 106.158 258.152C120.634 263.835 135.913 266.5 151.003 266.5C167.977 266.5 185.19 263.127 201.226 255.878L201.227 255.878C217.242 248.644 232.083 237.48 244.073 222.121L244.075 222.119C252.077 211.886 258.829 199.781 263.908 185.787L263.908 185.787C270.687 167.117 274.5 145.095 274.5 119.497L272.002 85.2996ZM272.002 85.2996C272.368 87.7776 272.696 90.277 272.984 92.7969C273.975 101.465 274.498 110.376 274.5 119.496L272.002 85.2996Z" fill="#FFF7B0" stroke="#4F4F4F" stroke-width="7"/>
<path d="M270.161 225.139L270.161 226.233L270.161 264.075L270.161 265.173C270.635 265.783 271.372 266.171 272.197 266.171C273.623 266.171 274.778 265.016 274.778 263.59L274.778 226.719C274.778 225.293 273.623 224.138 272.198 224.138L270.161 225.139ZM270.161 225.139C270.636 224.527 271.374 224.138 272.197 224.138L270.161 225.139ZM266.161 224.233L266.161 224.057L266.399 223.614C267.504 221.554 269.681 220.138 272.197 220.138L272.197 220.138C275.833 220.138 278.778 223.085 278.778 226.719L278.778 263.59C278.778 267.225 275.833 270.171 272.197 270.171C269.684 270.171 267.506 268.761 266.399 266.699L266.161 266.256L266.161 266.075L264.619 266.075L263.492 266.075L244.935 266.075L179.425 266.075C167.873 266.075 158.505 256.709 158.505 245.155C158.505 233.6 167.872 224.233 179.425 224.233L245.263 224.233L263.492 224.233L264.619 224.233L266.161 224.233ZM262.605 262.075L262.605 228.233L245.263 228.233L179.425 228.233C170.082 228.233 162.505 235.809 162.505 245.155C162.505 254.5 170.082 262.075 179.425 262.075L244.935 262.075L262.605 262.075ZM264.811 266.217L265.917 266.217L266.505 267.153C267.699 269.056 269.808 270.312 272.197 270.312C275.905 270.312 278.922 267.294 278.922 263.59L278.922 226.719C278.922 223.017 275.906 220 272.197 220C269.807 220 267.698 221.256 266.504 223.155L265.916 224.091L264.811 224.091L264.022 224.091L179.425 224.091C167.815 224.091 158.363 233.542 158.363 245.155C158.363 256.767 167.815 266.217 179.425 266.217L264.022 266.217L264.811 266.217Z" fill="white" stroke="#51BC03" stroke-width="4"/>
<path d="M173.5 249C205.075 267.34 263 249 263 249V264L167 262.5C167 262.5 160.37 247.891 162.5 245C169.5 235.5 170.69 247.368 173.5 249Z" fill="#51BC03"/>
<circle cx="170" cy="238" r="2" fill="#51BC03"/>
<circle cx="177" cy="233" r="4" fill="#51BC03"/>
<path d="M62.185 156.335C62.185 156.298 61.9283 156.262 61.415 156.225C60.9383 156.152 60.3333 156.115 59.6 156.115C58.9033 156.078 58.1517 156.078 57.345 156.115C56.5383 156.115 55.8417 156.17 55.255 156.28V159.91C55.255 162.953 55.2183 165.997 55.145 169.04C55.0717 172.083 54.9983 175.09 54.925 178.06C54.8883 180.993 54.8517 183.89 54.815 186.75C54.815 189.573 54.8517 192.305 54.925 194.945C56.0617 194.945 57.3083 194.963 58.665 195C60.0217 195.073 61.25 195.037 62.35 194.89C62.3867 194.817 62.405 194.688 62.405 194.505C62.405 194.138 62.405 193.845 62.405 193.625C62.4417 193.405 62.46 193.093 62.46 192.69C62.5333 192.507 62.6067 192.378 62.68 192.305C62.79 192.195 62.9 192.25 63.01 192.47C63.56 193.57 64.2933 194.285 65.21 194.615C66.1267 194.908 67.0983 194.982 68.125 194.835C70.215 194.688 71.865 194.157 73.075 193.24C74.285 192.287 75.1833 191.095 75.77 189.665C76.3933 188.198 76.7967 186.567 76.98 184.77C77.1633 182.973 77.2917 181.158 77.365 179.325C77.365 178.042 77.2733 176.795 77.09 175.585C76.9433 174.375 76.6867 173.275 76.32 172.285C75.99 171.258 75.5317 170.397 74.945 169.7C74.395 168.967 73.7167 168.453 72.91 168.16C71.92 167.793 70.82 167.573 69.61 167.5C68.4367 167.39 67.3183 167.39 66.255 167.5C65.1917 167.573 64.2933 167.738 63.56 167.995C62.8267 168.252 62.4233 168.545 62.35 168.875C62.3867 167.152 62.405 165.758 62.405 164.695C62.405 163.632 62.405 162.788 62.405 162.165C62.405 161.505 62.3867 161.01 62.35 160.68C62.35 160.313 62.3317 159.983 62.295 159.69C62.295 159.36 62.2767 159.012 62.24 158.645C62.24 158.242 62.2217 157.673 62.185 156.94V156.335ZM70.71 177.675C70.8933 178.188 71.0033 178.72 71.04 179.27C71.0767 179.82 71.095 180.352 71.095 180.865C71.095 181.782 70.985 182.68 70.765 183.56C70.545 184.403 70.215 185.173 69.775 185.87C69.335 186.53 68.8033 187.062 68.18 187.465C67.5567 187.868 66.86 188.07 66.09 188.07C65.1367 188.07 64.4033 187.868 63.89 187.465C63.3767 187.062 62.9733 186.512 62.68 185.815C62.4233 185.118 62.2583 184.293 62.185 183.34C62.1483 182.35 62.13 181.268 62.13 180.095C62.13 178.665 62.1483 177.547 62.185 176.74C62.2583 175.897 62.405 175.255 62.625 174.815C62.845 174.375 63.175 174.1 63.615 173.99C64.0917 173.843 64.715 173.77 65.485 173.77C66.9883 173.77 68.18 174.1 69.06 174.76C69.9767 175.42 70.5267 176.392 70.71 177.675ZM89.9527 167.335C88.7794 167.372 87.771 167.372 86.9277 167.335C86.0844 167.298 85.4244 167.262 84.9477 167.225C84.7644 167.225 84.4894 167.207 84.1227 167.17C83.7927 167.133 83.5544 167.133 83.4077 167.17V167.225C83.1877 169.388 83.0777 171.625 83.0777 173.935C83.0777 176.208 83.1144 178.518 83.1877 180.865C83.261 183.212 83.2977 185.577 83.2977 187.96C83.3344 190.343 83.261 192.69 83.0777 195C83.3344 194.927 83.8477 194.908 84.6177 194.945C85.3877 194.982 86.1944 195 87.0377 195C87.9177 195.037 88.7244 195.037 89.4577 195C90.191 195 90.6494 194.89 90.8327 194.67C90.576 190.233 90.5027 185.705 90.6127 181.085C90.7594 176.465 90.851 171.937 90.8877 167.5V167.335H89.9527ZM83.1877 155.345C83.151 157.032 83.1694 158.462 83.2427 159.635C83.3527 160.772 83.4077 161.872 83.4077 162.935C84.1044 162.898 84.856 162.917 85.6627 162.99C86.4694 163.027 87.221 163.063 87.9177 163.1C88.651 163.1 89.2744 163.063 89.7877 162.99C90.3377 162.917 90.686 162.77 90.8327 162.55C90.8327 162 90.8144 161.377 90.7777 160.68C90.7777 159.947 90.7594 159.25 90.7227 158.59C90.7227 157.893 90.7044 157.27 90.6677 156.72C90.6677 156.133 90.6677 155.73 90.6677 155.51L83.1877 155.345ZM104.914 169.425C104.914 169.168 104.896 168.985 104.859 168.875C104.859 168.765 104.859 168.673 104.859 168.6C104.859 168.49 104.859 168.362 104.859 168.215C104.859 168.068 104.859 167.848 104.859 167.555C104.859 167.482 104.694 167.445 104.364 167.445C104.071 167.408 103.704 167.408 103.264 167.445C102.861 167.482 102.458 167.518 102.054 167.555C101.688 167.592 101.431 167.61 101.284 167.61C100.844 167.647 100.478 167.683 100.184 167.72C99.8911 167.72 99.6161 167.72 99.3594 167.72C99.1027 167.72 98.8277 167.72 98.5344 167.72C98.2411 167.683 97.8744 167.647 97.4344 167.61C97.2877 172.45 97.2511 177.125 97.3244 181.635C97.4344 186.145 97.4894 190.655 97.4894 195.165C98.3694 195.092 99.1211 195.073 99.7444 195.11C100.404 195.147 101.009 195.165 101.559 195.165C102.109 195.202 102.641 195.202 103.154 195.165C103.668 195.128 104.236 195.018 104.859 194.835V194.615C104.859 193.258 104.841 191.993 104.804 190.82C104.804 189.61 104.804 188.437 104.804 187.3C104.804 186.127 104.786 184.972 104.749 183.835C104.713 182.698 104.676 181.488 104.639 180.205C104.603 179.178 104.749 178.39 105.079 177.84C105.409 177.29 105.868 176.887 106.454 176.63C107.078 176.373 107.793 176.245 108.599 176.245C109.443 176.245 110.359 176.3 111.349 176.41C111.386 176.41 111.624 176.447 112.064 176.52C112.541 176.593 112.999 176.685 113.439 176.795C113.623 176.868 113.806 176.942 113.989 177.015C114.209 177.052 114.411 177.107 114.594 177.18L115.089 177.345C115.053 176.795 115.034 176.208 115.034 175.585C115.034 174.962 115.034 174.283 115.034 173.55C115.034 172.78 115.034 171.918 115.034 170.965C115.071 170.012 115.089 168.912 115.089 167.665C115.089 167.628 114.814 167.61 114.264 167.61C113.751 167.573 113.109 167.573 112.339 167.61C111.569 167.647 110.744 167.738 109.864 167.885C108.984 167.995 108.196 168.16 107.499 168.38C106.986 168.563 106.454 168.765 105.904 168.985C105.391 169.205 105.061 169.352 104.914 169.425ZM130.223 157.38C129.6 157.453 128.977 157.472 128.353 157.435C127.73 157.398 127.107 157.362 126.483 157.325C125.86 157.252 125.255 157.197 124.668 157.16C124.118 157.123 123.605 157.142 123.128 157.215C123.055 157.912 123 158.7 122.963 159.58C122.963 160.46 122.963 161.377 122.963 162.33C122.963 163.283 122.982 164.237 123.018 165.19C123.055 166.107 123.073 166.968 123.073 167.775C122.487 167.775 121.863 167.775 121.203 167.775C120.58 167.775 119.902 167.757 119.168 167.72L119.003 174.43C119.773 174.43 120.47 174.43 121.093 174.43C121.753 174.43 122.377 174.412 122.963 174.375C122.927 177.052 122.945 179.655 123.018 182.185C123.092 184.678 123.367 187.337 123.843 190.16C124.32 191.297 125.09 192.195 126.153 192.855C127.253 193.515 128.5 194.01 129.893 194.34C131.287 194.67 132.772 194.89 134.348 195C135.925 195.073 137.447 195.073 138.913 195C139.097 194.45 139.207 193.845 139.243 193.185C139.317 192.525 139.335 191.865 139.298 191.205C139.262 190.545 139.207 189.903 139.133 189.28C139.06 188.657 138.987 188.088 138.913 187.575C138.29 187.612 137.557 187.612 136.713 187.575C135.907 187.538 135.1 187.447 134.293 187.3C133.487 187.117 132.735 186.878 132.038 186.585C131.342 186.292 130.81 185.888 130.443 185.375C130.407 183.725 130.388 181.965 130.388 180.095C130.388 178.188 130.388 176.245 130.388 174.265H138.913C138.84 173.788 138.822 173.22 138.858 172.56C138.932 171.863 138.987 171.185 139.023 170.525C139.06 169.865 139.06 169.26 139.023 168.71C138.987 168.123 138.84 167.683 138.583 167.39C136.713 167.5 135.137 167.592 133.853 167.665C132.607 167.738 131.415 167.793 130.278 167.83C130.278 167.28 130.26 166.748 130.223 166.235C130.223 165.722 130.223 165.227 130.223 164.75V157.38ZM151.603 170.47C151.603 170.323 151.603 169.865 151.603 169.095C151.603 168.325 151.603 167.408 151.603 166.345C151.603 165.282 151.603 164.145 151.603 162.935C151.603 161.688 151.603 160.533 151.603 159.47C151.603 158.37 151.603 157.435 151.603 156.665C151.603 155.858 151.585 155.363 151.548 155.18C151.548 155.07 151.401 155.015 151.108 155.015C150.815 154.978 150.485 154.978 150.118 155.015C149.751 155.052 149.385 155.107 149.018 155.18C148.651 155.217 148.395 155.235 148.248 155.235C147.808 155.272 147.441 155.308 147.148 155.345C146.855 155.345 146.58 155.345 146.323 155.345C146.066 155.345 145.791 155.345 145.498 155.345C145.205 155.308 144.838 155.272 144.398 155.235C144.361 156.848 144.325 158.755 144.288 160.955C144.288 163.118 144.288 165.428 144.288 167.885C144.288 170.342 144.288 172.872 144.288 175.475C144.288 178.042 144.288 180.535 144.288 182.955C144.325 185.375 144.343 187.648 144.343 189.775C144.38 191.865 144.398 193.662 144.398 195.165C145.278 195.092 146.011 195.073 146.598 195.11C147.185 195.147 147.716 195.165 148.193 195.165C148.67 195.202 149.128 195.202 149.568 195.165C150.045 195.128 150.595 195.018 151.218 194.835V194.615C151.365 193.405 151.438 192.195 151.438 190.985C151.438 189.775 151.401 188.565 151.328 187.355C151.291 186.108 151.255 184.88 151.218 183.67C151.181 182.423 151.2 181.158 151.273 179.875C151.346 178.885 151.603 178.152 152.043 177.675C152.483 177.162 152.978 176.832 153.528 176.685C154.078 176.502 154.628 176.465 155.178 176.575C155.765 176.648 156.205 176.758 156.498 176.905C156.535 176.942 156.571 176.96 156.608 176.96C156.645 176.96 156.681 176.978 156.718 177.015C157.011 177.235 157.231 177.547 157.378 177.95C157.561 178.353 157.69 178.812 157.763 179.325C157.873 179.838 157.946 180.37 157.983 180.92C158.02 181.433 158.056 181.91 158.093 182.35C158.166 183.34 158.203 184.403 158.203 185.54C158.24 186.677 158.24 187.813 158.203 188.95C158.203 190.087 158.203 191.187 158.203 192.25C158.203 193.313 158.24 194.267 158.313 195.11C159.596 195.11 160.733 195.11 161.723 195.11C162.75 195.147 163.905 195.073 165.188 194.89C165.115 193.643 165.096 192.195 165.133 190.545C165.17 188.895 165.206 187.19 165.243 185.43C165.28 183.633 165.298 181.873 165.298 180.15C165.335 178.39 165.316 176.777 165.243 175.31C165.206 173.843 165.078 172.597 164.858 171.57C164.675 170.507 164.4 169.81 164.033 169.48C163.263 168.82 162.401 168.362 161.448 168.105C160.495 167.848 159.505 167.738 158.478 167.775C157.488 167.812 156.516 167.995 155.563 168.325C154.61 168.655 153.748 169.095 152.978 169.645C152.795 169.792 152.556 169.938 152.263 170.085C152.006 170.232 151.786 170.36 151.603 170.47ZM179.006 205.56C179.043 204.827 179.061 204.258 179.061 203.855C179.098 203.488 179.116 203.14 179.116 202.81C179.153 202.517 179.171 202.187 179.171 201.82C179.208 201.49 179.226 200.995 179.226 200.335C179.226 199.712 179.226 198.868 179.226 197.805C179.226 196.742 179.208 195.348 179.171 193.625C179.245 193.955 179.648 194.248 180.381 194.505C181.115 194.762 182.013 194.927 183.076 195C184.14 195.11 185.258 195.11 186.431 195C187.641 194.927 188.741 194.707 189.731 194.34C190.538 194.047 191.216 193.552 191.766 192.855C192.353 192.122 192.811 191.26 193.141 190.27C193.508 189.243 193.765 188.125 193.911 186.915C194.095 185.705 194.186 184.458 194.186 183.175C194.113 181.342 193.985 179.527 193.801 177.73C193.618 175.933 193.215 174.32 192.591 172.89C192.005 171.423 191.106 170.232 189.896 169.315C188.686 168.362 187.036 167.812 184.946 167.665C183.92 167.518 182.948 167.61 182.031 167.94C181.115 168.233 180.381 168.93 179.831 170.03C179.721 170.25 179.611 170.323 179.501 170.25C179.428 170.14 179.355 169.993 179.281 169.81C179.281 169.407 179.263 169.095 179.226 168.875C179.226 168.655 179.226 168.362 179.226 167.995C179.226 167.812 179.208 167.683 179.171 167.61C178.071 167.463 176.843 167.427 175.486 167.5C174.13 167.537 172.883 167.555 171.746 167.555C171.673 170.195 171.636 172.945 171.636 175.805C171.673 178.628 171.71 181.525 171.746 184.495C171.82 187.428 171.893 190.417 171.966 193.46C172.04 196.503 172.076 199.547 172.076 202.59V206.22C172.663 206.33 173.36 206.385 174.166 206.385C174.973 206.422 175.725 206.422 176.421 206.385C177.155 206.385 177.76 206.348 178.236 206.275C178.75 206.238 179.006 206.202 179.006 206.165V205.56ZM187.531 184.825C187.348 186.108 186.798 187.08 185.881 187.74C185.001 188.4 183.81 188.73 182.306 188.73C181.536 188.73 180.913 188.675 180.436 188.565C179.996 188.418 179.666 188.125 179.446 187.685C179.226 187.245 179.08 186.622 179.006 185.815C178.97 184.972 178.951 183.835 178.951 182.405C178.951 181.268 178.97 180.205 179.006 179.215C179.08 178.225 179.245 177.382 179.501 176.685C179.795 175.988 180.198 175.438 180.711 175.035C181.225 174.632 181.958 174.43 182.911 174.43C183.681 174.43 184.378 174.632 185.001 175.035C185.625 175.438 186.156 175.988 186.596 176.685C187.036 177.345 187.366 178.115 187.586 178.995C187.806 179.838 187.916 180.718 187.916 181.635C187.916 182.148 187.898 182.68 187.861 183.23C187.825 183.78 187.715 184.312 187.531 184.825ZM206.664 181.195C207.031 181.268 207.617 181.323 208.424 181.36C209.231 181.397 210.129 181.415 211.119 181.415C212.146 181.415 213.209 181.397 214.309 181.36C215.409 181.323 216.436 181.268 217.389 181.195C218.379 181.122 219.222 181.048 219.919 180.975C220.652 180.902 221.147 180.828 221.404 180.755C221.514 179.215 221.514 177.693 221.404 176.19C221.294 174.687 220.964 173.312 220.414 172.065C219.901 170.818 219.131 169.755 218.104 168.875C217.077 167.995 215.721 167.408 214.034 167.115C212.714 166.785 211.357 166.638 209.964 166.675C208.571 166.712 207.251 166.932 206.004 167.335C204.757 167.702 203.639 168.27 202.649 169.04C201.659 169.773 200.926 170.672 200.449 171.735C200.009 172.945 199.716 174.192 199.569 175.475C199.459 176.722 199.349 178.023 199.239 179.38C199.166 180.883 199.202 182.387 199.349 183.89C199.496 185.393 199.771 186.823 200.174 188.18C200.577 189.5 201.109 190.728 201.769 191.865C202.429 192.965 203.254 193.863 204.244 194.56C205.124 195.073 206.077 195.403 207.104 195.55C208.131 195.55 209.249 195.587 210.459 195.66C211.706 195.733 212.916 195.733 214.089 195.66C215.262 195.587 216.344 195.367 217.334 195C218.324 194.633 219.131 194.01 219.754 193.13C220.011 192.91 220.212 192.525 220.359 191.975C220.542 191.388 220.689 190.71 220.799 189.94C220.909 189.133 221.001 188.272 221.074 187.355C221.147 186.438 221.221 185.503 221.294 184.55C220.891 184.44 220.377 184.385 219.754 184.385C219.131 184.348 218.471 184.348 217.774 184.385C217.114 184.422 216.472 184.458 215.849 184.495C215.226 184.495 214.731 184.477 214.364 184.44C214.437 185.943 214.199 187.08 213.649 187.85C213.136 188.583 212.494 189.023 211.724 189.17C210.954 189.317 210.166 189.188 209.359 188.785C208.552 188.382 207.929 187.758 207.489 186.915C207.086 186.255 206.847 185.577 206.774 184.88C206.737 184.183 206.701 183.285 206.664 182.185V181.195ZM213.319 172.67C213.979 173 214.492 173.495 214.859 174.155C215.262 174.815 215.464 175.512 215.464 176.245C215.464 176.538 215.464 176.74 215.464 176.85C215.464 176.923 215.354 176.978 215.134 177.015C214.951 177.015 214.621 176.997 214.144 176.96C213.667 176.923 212.952 176.905 211.999 176.905C210.606 176.905 209.542 176.923 208.809 176.96C208.112 176.96 207.599 176.942 207.269 176.905C206.939 176.832 206.756 176.722 206.719 176.575C206.719 176.392 206.756 176.098 206.829 175.695C206.902 175.218 207.012 174.76 207.159 174.32C207.342 173.88 207.599 173.495 207.929 173.165C208.259 172.835 208.699 172.578 209.249 172.395C209.799 172.212 210.514 172.12 211.394 172.12C211.797 172.12 212.146 172.175 212.439 172.285C212.732 172.358 213.026 172.487 213.319 172.67ZM248.427 184.44C248.024 184.33 247.511 184.275 246.887 184.275C246.264 184.238 245.604 184.238 244.907 184.275C244.211 184.312 243.551 184.348 242.927 184.385C242.304 184.385 241.809 184.367 241.442 184.33C241.332 184.807 241.167 185.357 240.947 185.98C240.764 186.567 240.489 186.988 240.122 187.245C239.682 187.538 239.096 187.74 238.362 187.85C237.629 187.923 236.914 187.887 236.217 187.74C235.521 187.557 234.916 187.227 234.402 186.75C233.926 186.273 233.724 185.613 233.797 184.77C233.871 183.487 233.907 182.258 233.907 181.085C233.907 179.912 233.981 178.757 234.127 177.62C234.237 177.033 234.402 176.667 234.622 176.52C235.099 175.933 235.722 175.53 236.492 175.31C237.922 174.943 239.077 175.127 239.957 175.86C240.837 176.557 241.369 177.547 241.552 178.83C242.029 178.903 242.561 178.977 243.147 179.05C243.771 179.123 244.394 179.178 245.017 179.215C245.677 179.252 246.301 179.27 246.887 179.27C247.511 179.27 248.061 179.215 248.537 179.105C248.501 177.895 248.464 176.777 248.427 175.75C248.427 174.687 248.354 173.733 248.207 172.89C248.061 172.047 247.841 171.313 247.547 170.69C247.291 170.067 246.906 169.572 246.392 169.205C245.622 168.472 244.706 167.922 243.642 167.555C242.579 167.188 241.461 166.968 240.287 166.895C239.517 166.822 238.784 166.822 238.087 166.895C237.427 166.932 236.731 166.913 235.997 166.84C235.117 166.84 234.237 166.895 233.357 167.005C232.514 167.115 231.707 167.317 230.937 167.61C230.204 167.867 229.544 168.197 228.957 168.6C228.407 169.003 228.004 169.48 227.747 170.03C227.637 170.397 227.472 170.928 227.252 171.625C227.032 172.322 226.904 172.872 226.867 173.275C226.647 174.595 226.537 175.915 226.537 177.235C226.684 178.445 226.721 179.783 226.647 181.25C226.611 182.717 226.629 184.183 226.702 185.65C226.776 187.08 226.996 188.455 227.362 189.775C227.729 191.095 228.407 192.195 229.397 193.075C230.681 194.358 232.257 195.165 234.127 195.495C235.154 195.495 236.291 195.532 237.537 195.605C238.784 195.715 239.994 195.715 241.167 195.605C242.341 195.532 243.422 195.312 244.412 194.945C245.439 194.578 246.264 193.955 246.887 193.075C247.144 192.818 247.346 192.415 247.492 191.865C247.676 191.278 247.822 190.6 247.932 189.83C248.042 189.023 248.134 188.162 248.207 187.245C248.281 186.328 248.354 185.393 248.427 184.44Z" fill="#4F4F4F"/>
</svg>
