<svg width="686" height="603" viewBox="0 0 686 603" fill="none" xmlns="http://www.w3.org/2000/svg">
<rect width="686" height="603" rx="48" fill="#272823"/>
<circle cx="49" cy="53" r="15" fill="#ED6A5E"/>
<circle cx="99" cy="53" r="15" fill="#F5BF50"/>
<circle cx="149" cy="53" r="15" fill="#62C554"/>
<path d="M193.38 353.143C190.539 355.847 187.746 358.673 185.01 361.624L193.38 353.143ZM193.38 353.143L193.405 353.807L193.409 353.901L193.414 353.995L194.7 376.944L195.266 387.057L205.393 386.855L228.002 386.404L229.268 408.982L229.834 419.094L239.96 418.893L262.574 418.443L263.841 441.026L264.409 451.135L274.532 450.936L297.149 450.491L298.419 473.074L298.987 483.183L309.111 482.982L331.363 482.541L331.458 482.539L331.553 482.535L332.196 482.511C329.815 485.411 327.319 488.274 324.706 491.094L193.38 353.143ZM155.326 405.958L155.325 405.96C150.789 416.695 148.256 427.142 147.412 437.094L147.411 437.102C146.136 452.011 148.654 466.008 153.873 478.405L153.874 478.407C159.109 490.85 167.053 501.776 176.685 510.703C185.247 518.638 195.285 525.126 206.406 529.475C214.734 532.728 223.682 534.782 233.033 535.32L233.039 535.321C247.039 536.135 262.155 533.555 277.58 526.559L277.583 526.557C293.042 519.554 308.958 508.086 324.706 491.094L155.326 405.958ZM155.326 405.958C161.378 391.628 171.008 376.732 185.009 361.625L155.326 405.958Z" fill="white" stroke="#4F4F4F" stroke-width="21"/>
<path d="M493.264 344.911C496.106 347.615 498.899 350.442 501.634 353.392L493.264 344.911ZM493.264 344.911L493.239 345.575L493.235 345.669L493.23 345.764L491.945 368.713L491.378 378.826L481.252 378.624L458.642 378.172L457.377 400.751L456.81 410.862L446.685 410.661L424.07 410.212L422.803 432.795L422.235 442.903L412.113 442.704L389.495 442.259L388.225 464.842L387.657 474.951L377.534 474.751L355.281 474.309L355.186 474.307L355.091 474.304L354.448 474.279C356.829 477.179 359.325 480.043 361.938 482.862L493.264 344.911ZM531.319 397.727L531.319 397.728C535.855 408.464 538.389 418.91 539.232 428.862L539.233 428.87C540.508 443.779 537.991 457.776 532.771 470.173L532.77 470.176C527.535 482.618 519.592 493.544 509.96 502.471C501.397 510.407 491.359 516.894 480.239 521.243C471.911 524.496 462.963 526.551 453.612 527.089L453.605 527.089C439.606 527.904 424.489 525.323 409.065 518.327L409.061 518.326C393.602 511.322 377.687 499.854 361.938 482.862L531.319 397.727ZM531.319 397.727C525.267 383.397 515.636 368.5 501.635 353.394L531.319 397.727Z" fill="white" stroke="#4F4F4F" stroke-width="21"/>
<path d="M239.513 457.699L230.643 448.83L214.213 465.26L197.783 448.83L188.913 457.699L205.343 474.129L188.913 490.56L197.783 499.429L214.213 482.999L230.644 499.429L239.513 490.56L223.082 474.129L239.513 457.699Z" fill="#F44747"/>
<path d="M500.816 435.136C481.05 446.089 461.041 477.245 461.041 477.245L442.985 456.799L432.247 467.022L458.356 499.393L467.873 499.028C480.075 462.516 507.039 438.057 507.039 438.057L500.816 435.136Z" fill="#51BC03"/>
<path d="M207.167 283.824L241.659 258.536C246.158 255.238 252.502 256.213 255.803 260.715C257.935 263.624 258.279 267.304 257.037 270.434L257.579 271.173L315.6 350.311C324.32 362.206 321.74 378.98 309.843 387.702C297.946 396.424 281.171 393.841 272.45 381.946L214.429 302.808L213.888 302.07C210.532 302.31 207.127 300.874 204.994 297.966C201.694 293.464 202.67 287.121 207.167 283.824ZM218.667 300.463L231.169 317.516L276.324 379.106C283.49 388.88 297.226 390.995 307.002 383.828C316.778 376.661 318.891 362.926 311.725 353.151L266.795 291.868L254.068 274.509L253.295 273.455C253.15 273.572 253.003 273.688 252.85 273.8L218.358 299.088C218.204 299.201 218.053 299.304 217.894 299.409L218.667 300.463V300.463ZM213.899 297.243L215.464 296.095L250.865 270.141L252.435 268.99C253.252 267.28 253.126 265.19 251.928 263.556C250.192 261.189 246.869 260.677 244.501 262.413L210.009 287.701C207.642 289.436 207.13 292.761 208.865 295.128C210.064 296.762 212.022 297.507 213.899 297.243Z" fill="#F44747"/>
<path d="M279.147 317.581L307.498 356.25C312.943 363.677 311.332 374.154 303.903 379.6C296.475 385.047 285.996 383.433 280.551 376.007L252.004 337.07C265.649 334.617 266.93 320.88 279.147 317.581ZM290.777 345.998C289.683 344.51 287.585 344.189 286.097 345.286C284.608 346.38 284.289 348.473 285.384 349.96C286.479 351.454 288.571 351.776 290.061 350.678C291.551 349.586 291.872 347.491 290.777 345.998ZM299.983 367.376C301.118 366.543 301.362 364.95 300.529 363.813C299.695 362.679 298.097 362.433 296.962 363.268C295.828 364.102 295.585 365.697 296.419 366.831C297.252 367.966 298.847 368.211 299.983 367.376ZM281.855 366.134C282.742 367.345 284.444 367.608 285.654 366.718C286.865 365.83 287.126 364.129 286.237 362.916C285.349 361.705 283.644 361.446 282.434 362.335C281.223 363.223 280.964 364.923 281.855 366.134Z" fill="#F44747"/>
<path d="M485.81 219.292L438.058 184.282C431.83 179.716 423.047 181.066 418.478 187.299C415.526 191.326 415.05 196.421 416.768 200.754L416.019 201.777L335.693 311.338C323.62 327.805 327.193 351.028 343.663 363.103C360.133 375.178 383.358 371.603 395.431 355.135L475.757 245.574L476.506 244.552C481.152 244.885 485.866 242.896 488.818 238.87C493.388 232.637 492.036 223.856 485.81 219.292ZM469.89 242.327L452.581 265.936L390.067 351.203C380.146 364.734 361.13 367.662 347.595 357.739C334.062 347.818 331.136 328.802 341.057 315.27L403.26 230.428L420.88 206.395L421.95 204.936C422.15 205.098 422.354 205.259 422.565 205.414L470.318 240.424C470.53 240.579 470.74 240.722 470.96 240.868L469.89 242.327V242.327ZM476.49 237.869L474.324 236.28L425.314 200.348L423.14 198.755C422.009 196.387 422.183 193.494 423.842 191.232C426.245 187.954 430.846 187.246 434.124 189.649L481.876 224.659C485.152 227.061 485.862 231.663 483.459 234.941C481.8 237.203 479.089 238.235 476.49 237.869Z" fill="#51BC03"/>
<path d="M386.159 266.026L346.909 319.561C339.372 329.842 341.601 344.347 351.886 351.887C362.17 359.427 376.678 357.193 384.216 346.912L423.737 293.006C404.846 289.611 403.072 270.592 386.159 266.026ZM370.058 305.367C371.573 303.308 374.477 302.863 376.538 304.381C378.598 305.896 379.04 308.793 377.525 310.853C376.009 312.92 373.112 313.366 371.05 311.846C368.987 310.334 368.542 307.434 370.058 305.367ZM357.313 334.963C355.742 333.811 355.404 331.605 356.558 330.031C357.711 328.46 359.924 328.12 361.496 329.276C363.065 330.431 363.401 332.639 362.247 334.209C361.095 335.781 358.886 336.12 357.313 334.963ZM382.411 333.244C381.181 334.921 378.826 335.284 377.151 334.052C375.474 332.823 375.113 330.468 376.344 328.789C377.573 327.112 379.934 326.753 381.608 327.985C383.285 329.214 383.644 331.567 382.411 333.244Z" fill="#51BC03"/>
<path d="M37.763 113.303L42.003 112.826V128.62C42.7803 128.09 43.593 127.631 44.441 127.242C45.1477 126.889 45.9427 126.571 46.826 126.288C47.7093 125.97 48.5927 125.811 49.476 125.811C50.9247 125.811 52.285 126.094 53.557 126.659C54.8643 127.224 55.995 128.072 56.949 129.203C57.9383 130.334 58.7157 131.765 59.281 133.496C59.8463 135.227 60.129 137.277 60.129 139.644C60.129 142.259 59.758 144.467 59.016 146.269C58.3093 148.036 57.3377 149.467 56.101 150.562C54.8997 151.657 53.5217 152.452 51.967 152.947C50.4123 153.442 48.8223 153.689 47.197 153.689C45.5717 153.689 44.1583 153.565 42.957 153.318C41.791 153.106 40.8193 152.859 40.042 152.576C39.1233 152.223 38.3637 151.834 37.763 151.41V113.303ZM42.003 149.078C42.4623 149.255 42.957 149.414 43.487 149.555C44.017 149.661 44.5823 149.767 45.183 149.873C45.819 149.944 46.4903 149.979 47.197 149.979C48.8223 149.979 50.1827 149.749 51.278 149.29C52.3733 148.831 53.239 148.159 53.875 147.276C54.511 146.393 54.9527 145.333 55.2 144.096C55.4827 142.824 55.624 141.411 55.624 139.856C55.624 138.619 55.4827 137.383 55.2 136.146C54.9527 134.909 54.5463 133.814 53.981 132.86C53.4157 131.871 52.709 131.076 51.861 130.475C51.0483 129.839 50.0943 129.521 48.999 129.521C48.257 129.521 47.4797 129.68 46.667 129.998C45.8543 130.281 45.0947 130.616 44.388 131.005C43.5753 131.429 42.7803 131.906 42.003 132.436V149.078ZM68.9846 126.288L73.2246 125.811V153H68.9846V126.288ZM68.2956 118.709C68.2956 117.896 68.5606 117.225 69.0906 116.695C69.6559 116.13 70.3449 115.847 71.1576 115.847C72.0056 115.847 72.7122 116.13 73.2776 116.695C73.8782 117.225 74.1786 117.896 74.1786 118.709C74.1786 119.522 73.8782 120.211 73.2776 120.776C72.7122 121.306 72.0056 121.571 71.1576 121.571C70.3449 121.571 69.6559 121.306 69.0906 120.776C68.5606 120.211 68.2956 119.522 68.2956 118.709ZM83.5401 130.634C83.5401 129.821 83.4518 128.549 83.2751 126.818L87.1971 126.288L87.6211 130.157H87.6741C88.3101 129.344 88.9284 128.638 89.5291 128.037C90.1298 127.436 90.7481 126.924 91.3841 126.5C92.0554 126.041 92.6914 125.811 93.2921 125.811C94.1048 125.776 95.2354 125.864 96.6841 126.076L95.7301 130.157C94.5641 129.945 93.7514 129.857 93.2921 129.892C92.6914 129.892 92.0554 130.175 91.3841 130.74C90.7128 131.305 90.1298 131.906 89.6351 132.542C88.9991 133.319 88.3808 134.203 87.7801 135.192V153H83.5401V130.634ZM110.195 118.391V126.341H117.88V129.786H110.195V143.937C110.195 145.103 110.212 146.075 110.248 146.852C110.318 147.629 110.442 148.248 110.619 148.707C110.795 149.166 111.043 149.502 111.361 149.714C111.679 149.891 112.085 149.979 112.58 149.979C113.922 149.944 115.477 149.449 117.244 148.495L118.516 151.728C117.35 152.505 116.254 153.018 115.23 153.265C114.24 153.548 113.251 153.689 112.262 153.689C109.93 153.689 108.287 153.035 107.333 151.728C106.414 150.385 105.955 148.177 105.955 145.103V129.786H101.079V126.341H105.955V118.921L110.195 118.391ZM125.949 113.303L130.189 112.826V129.68C131.249 128.973 132.292 128.355 133.316 127.825C134.376 127.295 135.454 126.836 136.549 126.447C137.645 126.023 138.705 125.811 139.729 125.811C141.178 125.811 142.379 125.988 143.333 126.341C144.323 126.659 145.118 127.207 145.718 127.984C146.319 128.761 146.743 129.786 146.99 131.058C147.273 132.33 147.414 133.92 147.414 135.828V153H143.174V136.305C143.174 135.245 143.157 134.309 143.121 133.496C143.086 132.648 142.927 131.941 142.644 131.376C142.397 130.775 141.991 130.316 141.425 129.998C140.895 129.68 140.136 129.521 139.146 129.521C138.228 129.521 137.238 129.733 136.178 130.157C135.118 130.546 134.111 131.005 133.157 131.535C132.203 132.065 131.214 132.683 130.189 133.39V153H125.949V113.303ZM157.585 132.489C157.585 131.217 157.496 129.327 157.32 126.818L161.242 126.288L161.719 129.15C162.425 128.549 163.15 128.019 163.892 127.56C164.669 127.065 165.499 126.659 166.383 126.341C167.301 125.988 168.273 125.811 169.298 125.811C170.746 125.811 172.107 126.058 173.379 126.553C174.686 127.048 175.817 127.843 176.771 128.938C177.76 130.033 178.537 131.464 179.103 133.231C179.668 134.962 179.951 137.1 179.951 139.644C179.951 142.223 179.562 144.414 178.785 146.216C178.043 147.983 177.053 149.431 175.817 150.562C174.615 151.657 173.237 152.452 171.683 152.947C170.163 153.442 168.609 153.689 167.019 153.689C165.323 153.654 163.591 153.442 161.825 153.053V164.554L157.585 165.084V132.489ZM167.019 149.979C168.503 149.979 169.775 149.714 170.835 149.184C171.895 148.654 172.76 147.93 173.432 147.011C174.138 146.057 174.651 144.979 174.969 143.778C175.287 142.541 175.446 141.234 175.446 139.856C175.446 138.619 175.322 137.383 175.075 136.146C174.863 134.909 174.492 133.814 173.962 132.86C173.467 131.871 172.796 131.076 171.948 130.475C171.1 129.839 170.057 129.521 168.821 129.521C167.902 129.521 167.036 129.698 166.224 130.051C165.411 130.369 164.634 130.775 163.892 131.27C163.185 131.729 162.496 132.259 161.825 132.86V149.131C162.213 149.272 162.637 149.414 163.097 149.555C163.591 149.661 164.157 149.767 164.793 149.873C165.464 149.944 166.206 149.979 167.019 149.979ZM208.52 152.364C207.707 152.611 206.859 152.823 205.976 153C205.128 153.177 204.174 153.336 203.114 153.477C202.089 153.618 201.012 153.689 199.881 153.689C198.114 153.689 196.471 153.442 194.952 152.947C193.433 152.452 192.108 151.657 190.977 150.562C189.846 149.467 188.945 148.053 188.274 146.322C187.638 144.555 187.32 142.4 187.32 139.856C187.32 137.559 187.638 135.545 188.274 133.814C188.91 132.047 189.776 130.581 190.871 129.415C192.002 128.214 193.309 127.313 194.793 126.712C196.312 126.111 197.955 125.811 199.722 125.811C201.453 125.811 202.955 126.147 204.227 126.818C205.499 127.489 206.541 128.408 207.354 129.574C208.202 130.705 208.82 132.047 209.209 133.602C209.633 135.121 209.845 136.729 209.845 138.425L209.05 140.757H191.931C191.931 141.852 192.072 142.948 192.355 144.043C192.638 145.138 193.115 146.128 193.786 147.011C194.493 147.894 195.394 148.619 196.489 149.184C197.62 149.714 199.015 149.979 200.676 149.979C201.736 149.979 202.708 149.926 203.591 149.82C204.474 149.679 205.234 149.537 205.87 149.396C206.541 149.219 207.16 149.025 207.725 148.813L208.52 152.364ZM205.446 137.365C205.446 137.118 205.393 136.57 205.287 135.722C205.181 134.874 204.934 133.991 204.545 133.072C204.156 132.153 203.556 131.341 202.743 130.634C201.93 129.892 200.853 129.521 199.51 129.521C198.026 129.521 196.807 129.839 195.853 130.475C194.899 131.076 194.139 131.8 193.574 132.648C193.009 133.496 192.62 134.362 192.408 135.245C192.196 136.128 192.09 136.835 192.09 137.365H205.446ZM234.8 130.21C234.2 130.069 233.369 129.927 232.309 129.786C231.249 129.609 230.172 129.521 229.076 129.521C227.486 129.521 226.179 129.839 225.154 130.475C224.165 131.111 223.388 131.941 222.822 132.966C222.257 133.955 221.868 135.068 221.656 136.305C221.444 137.506 221.338 138.69 221.338 139.856C221.338 141.658 221.568 143.213 222.027 144.52C222.487 145.792 223.087 146.834 223.829 147.647C224.607 148.46 225.49 149.06 226.479 149.449C227.469 149.802 228.511 149.979 229.606 149.979C230.348 149.979 231.055 149.944 231.726 149.873C232.433 149.767 233.069 149.661 233.634 149.555C234.235 149.414 234.8 149.255 235.33 149.078L236.178 152.629C235.436 152.841 234.747 153.018 234.111 153.159C233.475 153.3 232.716 153.424 231.832 153.53C230.984 153.636 230.066 153.689 229.076 153.689C227.133 153.689 225.402 153.442 223.882 152.947C222.363 152.452 221.073 151.657 220.013 150.562C218.989 149.467 218.194 148.036 217.628 146.269C217.098 144.502 216.833 142.347 216.833 139.803C216.833 137.33 217.169 135.21 217.84 133.443C218.547 131.641 219.466 130.192 220.596 129.097C221.727 127.966 223.017 127.136 224.465 126.606C225.949 126.076 227.486 125.811 229.076 125.811C229.924 125.811 230.737 125.864 231.514 125.97C232.327 126.041 233.034 126.129 233.634 126.235C234.341 126.376 235.012 126.518 235.648 126.659L234.8 130.21Z" fill="white"/>
<rect x="259" y="113" width="5" height="45" fill="#A7A7A7"/>
</svg>
