<svg width="300" height="280" viewBox="0 0 300 280" fill="none" xmlns="http://www.w3.org/2000/svg">
<rect width="300" height="280" rx="18" fill="#272823"/>
<circle cx="21.7359" cy="25.1021" r="5.12324" fill="#ED6A5E"/>
<circle cx="38.8134" cy="25.1021" r="5.12324" fill="#F5BF50"/>
<circle cx="55.8908" cy="25.1021" r="5.12324" fill="#62C554"/>
<path d="M66.4375 134.457C63.4403 137.044 60.5217 139.851 57.7089 142.885L66.4375 134.457ZM66.4375 134.457L66.6492 140.03L66.6504 140.061L66.6521 140.093L67.3776 153.044L67.5664 156.414L70.9419 156.347L86.0401 156.046L86.885 171.123L87.0739 174.494L90.4491 174.427L105.549 174.127L106.396 189.206L106.585 192.576L109.959 192.509L125.061 192.212L125.909 207.291L126.098 210.661L129.473 210.594L142.03 210.345L142.062 210.344L142.094 210.343L147.673 210.131C145.367 213.237 142.845 216.283 140.101 219.245C131.03 229.032 121.793 235.713 112.73 239.819L112.729 239.819C103.679 243.924 94.757 245.459 86.4509 244.976L86.4487 244.976C80.9051 244.657 75.605 243.439 70.6786 241.514C64.1024 238.943 58.1812 235.113 53.1409 230.441C47.4712 225.187 42.779 218.74 39.6816 211.378L39.6812 211.377C36.5889 204.032 35.0988 195.74 35.8535 186.921L35.8537 186.918C36.3524 181.035 37.8476 174.891 40.5016 168.609L40.5018 168.609C44.0423 160.226 49.6447 151.586 57.7085 142.885L66.4375 134.457Z" fill="white" stroke="#4F4F4F" stroke-width="7"/>
<path d="M233.486 124.673C236.483 127.259 239.402 130.067 242.214 133.1L233.486 124.673ZM233.486 124.673L233.274 130.245L233.273 130.277L233.271 130.308L232.546 143.259L232.357 146.63L228.981 146.563L213.883 146.261L213.038 161.339L212.849 164.709L209.474 164.642L194.374 164.342L193.527 179.422L193.338 182.791L189.964 182.725L174.862 182.428L174.014 197.507L173.825 200.876L170.451 200.809L157.893 200.56L157.861 200.56L157.83 200.559L152.25 200.347C154.556 203.453 157.078 206.499 159.823 209.461C168.893 219.247 178.13 225.928 187.193 230.034L187.194 230.035C196.245 234.139 205.166 235.675 213.472 235.192L213.475 235.192C219.018 234.873 224.318 233.654 229.245 231.73C235.821 229.158 241.742 225.328 246.782 220.657C252.452 215.402 257.144 208.956 260.242 201.593L260.242 201.592C263.334 194.248 264.824 185.956 264.07 177.136L264.07 177.134C263.571 171.25 262.076 165.106 259.422 158.825L259.421 158.824C255.881 150.441 250.279 141.802 242.215 133.101L233.486 124.673Z" fill="white" stroke="#4F4F4F" stroke-width="7"/>
<path d="M95.3899 195.204L89.4247 189.239L78.3742 200.289L67.3238 189.239L61.358 195.204L72.4087 206.255L61.358 217.305L67.3238 223.27L78.3742 212.22L89.425 223.27L95.3899 217.305L84.3391 206.255L95.3899 195.204Z" fill="#F44747"/>
<path d="M240.293 179.133C228.513 185.661 216.588 204.229 216.588 204.229L205.827 192.044L199.427 198.136L214.988 217.429L220.659 217.211C227.931 195.451 244.001 180.874 244.001 180.874L240.293 179.133Z" fill="#51BC03"/>
<path d="M93.0054 123.927L107.304 113.443C109.169 112.076 111.799 112.481 113.167 114.347C114.051 115.553 114.194 117.078 113.679 118.376L113.904 118.682L137.956 151.488C141.571 156.419 140.501 163.373 135.57 166.989C130.638 170.605 123.683 169.534 120.068 164.603L96.0158 131.796L95.7915 131.49C94.4004 131.59 92.9888 130.995 92.1048 129.789C90.7365 127.923 91.1413 125.293 93.0054 123.927ZM97.7725 130.824L102.955 137.893L121.674 163.425C124.645 167.477 130.339 168.354 134.392 165.383C138.444 162.412 139.321 156.718 136.35 152.666L117.724 127.261L112.448 120.065L112.128 119.628C112.068 119.676 112.007 119.725 111.943 119.771L97.6445 130.254C97.581 130.301 97.518 130.344 97.4522 130.387L97.7725 130.824V130.824ZM95.7962 129.489L96.445 129.014L111.12 118.254L111.771 117.777C112.11 117.068 112.058 116.202 111.561 115.524C110.842 114.543 109.464 114.331 108.482 115.05L94.1835 125.534C93.2025 126.253 92.99 127.631 93.7095 128.612C94.2062 129.29 95.0182 129.599 95.7962 129.489Z" fill="#F44747"/>
<path d="M122.845 137.92L134.597 153.951C136.854 157.029 136.187 161.372 133.107 163.63C130.028 165.888 125.684 165.219 123.427 162.141L111.592 145.999C117.249 144.982 117.78 139.288 122.845 137.92ZM127.666 149.701C127.212 149.084 126.343 148.951 125.726 149.405C125.109 149.859 124.976 150.727 125.43 151.343C125.884 151.962 126.751 152.096 127.369 151.641C127.987 151.188 128.12 150.319 127.666 149.701ZM131.482 158.563C131.953 158.218 132.054 157.557 131.708 157.086C131.363 156.615 130.7 156.514 130.23 156.86C129.76 157.206 129.659 157.867 130.005 158.337C130.35 158.807 131.011 158.909 131.482 158.563ZM123.967 158.048C124.335 158.55 125.041 158.659 125.542 158.29C126.044 157.922 126.152 157.217 125.784 156.714C125.416 156.212 124.709 156.104 124.207 156.473C123.705 156.841 123.598 157.546 123.967 158.048Z" fill="#F44747"/>
<path d="M214.198 92.47L193.825 77.5334C191.168 75.5854 187.421 76.1615 185.471 78.8206C184.212 80.5385 184.009 82.7124 184.742 84.5612L184.422 84.9973L150.152 131.74C145.001 138.766 146.525 148.674 153.552 153.825C160.579 158.977 170.487 157.452 175.638 150.426L209.908 103.683L210.228 103.247C212.21 103.389 214.221 102.541 215.481 100.823C217.431 98.1635 216.854 94.4173 214.198 92.47ZM207.406 102.298L200.021 112.37L173.35 148.748C169.117 154.521 161.004 155.77 155.23 151.537C149.456 147.304 148.208 139.191 152.44 133.418L178.979 97.2209L186.496 86.9677L186.952 86.3452C187.038 86.4142 187.125 86.4829 187.215 86.5489L207.588 101.486C207.679 101.552 207.768 101.613 207.862 101.675L207.406 102.298V102.298ZM210.221 100.396L209.297 99.7178L188.388 84.3878L187.46 83.708C186.978 82.6978 187.052 81.4636 187.76 80.4985C188.785 79.1002 190.748 78.798 192.146 79.8231L212.519 94.7597C213.917 95.7845 214.22 97.7481 213.195 99.1464C212.487 100.111 211.33 100.552 210.221 100.396Z" fill="#51BC03"/>
<path d="M171.683 112.409L154.937 135.248C151.721 139.635 152.673 145.823 157.061 149.04C161.448 152.257 167.638 151.304 170.854 146.917L187.715 123.919C179.655 122.47 178.899 114.357 171.683 112.409ZM164.813 129.193C165.46 128.314 166.699 128.124 167.578 128.772C168.457 129.418 168.646 130.655 167.999 131.533C167.352 132.415 166.116 132.605 165.237 131.957C164.356 131.312 164.167 130.075 164.813 129.193ZM159.376 141.82C158.706 141.328 158.561 140.387 159.054 139.715C159.546 139.045 160.49 138.9 161.16 139.393C161.83 139.886 161.973 140.828 161.481 141.498C160.989 142.168 160.047 142.313 159.376 141.82ZM170.084 141.086C169.559 141.802 168.554 141.956 167.84 141.431C167.124 140.907 166.97 139.902 167.495 139.186C168.02 138.47 169.027 138.317 169.741 138.842C170.457 139.367 170.61 140.371 170.084 141.086Z" fill="#51BC03"/>
<path d="M18.562 47.522L20.322 47.324V53.88C20.6447 53.66 20.982 53.4693 21.334 53.308C21.6273 53.1613 21.9573 53.0293 22.324 52.912C22.6907 52.78 23.0573 52.714 23.424 52.714C24.0253 52.714 24.59 52.8313 25.118 53.066C25.6607 53.3007 26.13 53.6527 26.526 54.122C26.9367 54.5913 27.2593 55.1853 27.494 55.904C27.7287 56.6227 27.846 57.4733 27.846 58.456C27.846 59.5413 27.692 60.458 27.384 61.206C27.0907 61.9393 26.6873 62.5333 26.174 62.988C25.6753 63.4427 25.1033 63.7727 24.458 63.978C23.8127 64.1833 23.1527 64.286 22.478 64.286C21.8033 64.286 21.2167 64.2347 20.718 64.132C20.234 64.044 19.8307 63.9413 19.508 63.824C19.1267 63.6773 18.8113 63.516 18.562 63.34V47.522ZM20.322 62.372C20.5127 62.4453 20.718 62.5113 20.938 62.57C21.158 62.614 21.3927 62.658 21.642 62.702C21.906 62.7313 22.1847 62.746 22.478 62.746C23.1527 62.746 23.7173 62.6507 24.172 62.46C24.6267 62.2693 24.986 61.9907 25.25 61.624C25.514 61.2573 25.6973 60.8173 25.8 60.304C25.9173 59.776 25.976 59.1893 25.976 58.544C25.976 58.0307 25.9173 57.5173 25.8 57.004C25.6973 56.4907 25.5287 56.036 25.294 55.64C25.0593 55.2293 24.766 54.8993 24.414 54.65C24.0767 54.386 23.6807 54.254 23.226 54.254C22.918 54.254 22.5953 54.32 22.258 54.452C21.9207 54.5693 21.6053 54.7087 21.312 54.87C20.9747 55.046 20.6447 55.244 20.322 55.464V62.372ZM31.5219 52.912L33.2819 52.714V64H31.5219V52.912ZM31.2359 49.766C31.2359 49.4287 31.3459 49.15 31.5659 48.93C31.8006 48.6953 32.0866 48.578 32.4239 48.578C32.7759 48.578 33.0692 48.6953 33.3039 48.93C33.5532 49.15 33.6779 49.4287 33.6779 49.766C33.6779 50.1033 33.5532 50.3893 33.3039 50.624C33.0692 50.844 32.7759 50.954 32.4239 50.954C32.0866 50.954 31.8006 50.844 31.5659 50.624C31.3459 50.3893 31.2359 50.1033 31.2359 49.766ZM37.5638 54.716C37.5638 54.3787 37.5271 53.8507 37.4538 53.132L39.0818 52.912L39.2578 54.518H39.2798C39.5438 54.1807 39.8005 53.8873 40.0498 53.638C40.2991 53.3887 40.5558 53.176 40.8198 53C41.0985 52.8093 41.3625 52.714 41.6118 52.714C41.9491 52.6993 42.4185 52.736 43.0198 52.824L42.6238 54.518C42.1398 54.43 41.8025 54.3933 41.6118 54.408C41.3625 54.408 41.0985 54.5253 40.8198 54.76C40.5411 54.9947 40.2991 55.244 40.0938 55.508C39.8298 55.8307 39.5731 56.1973 39.3238 56.608V64H37.5638V54.716ZM48.6279 49.634V52.934H51.8179V54.364H48.6279V60.238C48.6279 60.722 48.6353 61.1253 48.6499 61.448C48.6793 61.7707 48.7306 62.0273 48.8039 62.218C48.8773 62.4087 48.9799 62.548 49.1119 62.636C49.2439 62.7093 49.4126 62.746 49.6179 62.746C50.1753 62.7313 50.8206 62.526 51.5539 62.13L52.0819 63.472C51.5979 63.7947 51.1433 64.0073 50.7179 64.11C50.3073 64.2273 49.8966 64.286 49.4859 64.286C48.5179 64.286 47.8359 64.0147 47.4399 63.472C47.0586 62.9147 46.8679 61.998 46.8679 60.722V54.364H44.8439V52.934H46.8679V49.854L48.6279 49.634ZM55.1676 47.522L56.9276 47.324V54.32C57.3676 54.0267 57.8003 53.77 58.2256 53.55C58.6656 53.33 59.1129 53.1393 59.5676 52.978C60.0223 52.802 60.4623 52.714 60.8876 52.714C61.4889 52.714 61.9876 52.7873 62.3836 52.934C62.7943 53.066 63.1243 53.2933 63.3736 53.616C63.6229 53.9387 63.7989 54.364 63.9016 54.892C64.0189 55.42 64.0776 56.08 64.0776 56.872V64H62.3176V57.07C62.3176 56.63 62.3103 56.2413 62.2956 55.904C62.2809 55.552 62.2149 55.2587 62.0976 55.024C61.9949 54.7747 61.8263 54.584 61.5916 54.452C61.3716 54.32 61.0563 54.254 60.6456 54.254C60.2643 54.254 59.8536 54.342 59.4136 54.518C58.9736 54.6793 58.5556 54.87 58.1596 55.09C57.7636 55.31 57.3529 55.5667 56.9276 55.86V64H55.1676V47.522ZM68.2994 55.486C68.2994 54.958 68.2627 54.1733 68.1894 53.132L69.8174 52.912L70.0154 54.1C70.3087 53.8507 70.6094 53.6307 70.9174 53.44C71.24 53.2347 71.5847 53.066 71.9514 52.934C72.3327 52.7873 72.736 52.714 73.1614 52.714C73.7627 52.714 74.3274 52.8167 74.8554 53.022C75.398 53.2273 75.8674 53.5573 76.2634 54.012C76.674 54.4667 76.9967 55.0607 77.2314 55.794C77.466 56.5127 77.5834 57.4 77.5834 58.456C77.5834 59.5267 77.422 60.436 77.0994 61.184C76.7914 61.9173 76.3807 62.5187 75.8674 62.988C75.3687 63.4427 74.7967 63.7727 74.1514 63.978C73.5207 64.1833 72.8754 64.286 72.2154 64.286C71.5114 64.2713 70.7927 64.1833 70.0594 64.022V68.796L68.2994 69.016V55.486ZM72.2154 62.746C72.8314 62.746 73.3594 62.636 73.7994 62.416C74.2394 62.196 74.5987 61.8953 74.8774 61.514C75.1707 61.118 75.3834 60.6707 75.5154 60.172C75.6474 59.6587 75.7134 59.116 75.7134 58.544C75.7134 58.0307 75.662 57.5173 75.5594 57.004C75.4714 56.4907 75.3174 56.036 75.0974 55.64C74.892 55.2293 74.6134 54.8993 74.2614 54.65C73.9094 54.386 73.4767 54.254 72.9634 54.254C72.582 54.254 72.2227 54.3273 71.8854 54.474C71.548 54.606 71.2254 54.7747 70.9174 54.98C70.624 55.1707 70.338 55.3907 70.0594 55.64V62.394C70.2207 62.4527 70.3967 62.5113 70.5874 62.57C70.7927 62.614 71.0274 62.658 71.2914 62.702C71.57 62.7313 71.878 62.746 72.2154 62.746ZM89.4422 63.736C89.1049 63.8387 88.7529 63.9267 88.3862 64C88.0342 64.0733 87.6382 64.1393 87.1982 64.198C86.7729 64.2567 86.3256 64.286 85.8562 64.286C85.1229 64.286 84.4409 64.1833 83.8102 63.978C83.1796 63.7727 82.6296 63.4427 82.1602 62.988C81.6909 62.5333 81.3169 61.9467 81.0382 61.228C80.7742 60.4947 80.6422 59.6 80.6422 58.544C80.6422 57.5907 80.7742 56.7547 81.0382 56.036C81.3022 55.3027 81.6616 54.694 82.1162 54.21C82.5856 53.7113 83.1282 53.3373 83.7442 53.088C84.3749 52.8387 85.0569 52.714 85.7902 52.714C86.5089 52.714 87.1322 52.8533 87.6602 53.132C88.1882 53.4107 88.6209 53.792 88.9582 54.276C89.3102 54.7453 89.5669 55.3027 89.7282 55.948C89.9042 56.5787 89.9922 57.246 89.9922 57.95L89.6622 58.918H82.5562C82.5562 59.3727 82.6149 59.8273 82.7322 60.282C82.8496 60.7367 83.0476 61.1473 83.3262 61.514C83.6196 61.8807 83.9936 62.1813 84.4482 62.416C84.9176 62.636 85.4969 62.746 86.1862 62.746C86.6262 62.746 87.0296 62.724 87.3962 62.68C87.7629 62.6213 88.0782 62.5627 88.3422 62.504C88.6209 62.4307 88.8776 62.35 89.1122 62.262L89.4422 63.736ZM88.1662 57.51C88.1662 57.4073 88.1442 57.18 88.1002 56.828C88.0562 56.476 87.9536 56.1093 87.7922 55.728C87.6309 55.3467 87.3816 55.0093 87.0442 54.716C86.7069 54.408 86.2596 54.254 85.7022 54.254C85.0862 54.254 84.5802 54.386 84.1842 54.65C83.7882 54.8993 83.4729 55.2 83.2382 55.552C83.0036 55.904 82.8422 56.2633 82.7542 56.63C82.6662 56.9967 82.6222 57.29 82.6222 57.51H88.1662ZM100.351 54.54C100.102 54.4813 99.7571 54.4227 99.3171 54.364C98.8771 54.2907 98.4298 54.254 97.9751 54.254C97.3151 54.254 96.7725 54.386 96.3471 54.65C95.9365 54.914 95.6138 55.2587 95.3791 55.684C95.1445 56.0947 94.9831 56.5567 94.8951 57.07C94.8071 57.5687 94.7631 58.06 94.7631 58.544C94.7631 59.292 94.8585 59.9373 95.0491 60.48C95.2398 61.008 95.4891 61.4407 95.7971 61.778C96.1198 62.1153 96.4865 62.3647 96.8971 62.526C97.3078 62.6727 97.7405 62.746 98.1951 62.746C98.5031 62.746 98.7965 62.7313 99.0751 62.702C99.3685 62.658 99.6325 62.614 99.8671 62.57C100.116 62.5113 100.351 62.4453 100.571 62.372L100.923 63.846C100.615 63.934 100.329 64.0073 100.065 64.066C99.8011 64.1247 99.4858 64.176 99.1191 64.22C98.7671 64.264 98.3858 64.286 97.9751 64.286C97.1685 64.286 96.4498 64.1833 95.8191 63.978C95.1885 63.7727 94.6531 63.4427 94.2131 62.988C93.7878 62.5333 93.4578 61.9393 93.2231 61.206C93.0031 60.4727 92.8931 59.578 92.8931 58.522C92.8931 57.4953 93.0325 56.6153 93.3111 55.882C93.6045 55.134 93.9858 54.5327 94.4551 54.078C94.9245 53.6087 95.4598 53.264 96.0611 53.044C96.6771 52.824 97.3151 52.714 97.9751 52.714C98.3271 52.714 98.6645 52.736 98.9871 52.78C99.3245 52.8093 99.6178 52.846 99.8671 52.89C100.16 52.9487 100.439 53.0073 100.703 53.066L100.351 54.54Z" fill="white"/>
<rect x="111" y="47" width="2" height="22" fill="#A7A7A7"/>
</svg>
